# 3ds Max Wavefront OBJ Exporter v0.97b - (c)2007 guruware
# File Created: 28.08.2016 15:40:51

mtllib palm_trunk_low.mtl

#
# object palm_trunk
#

v  0.3738 3.1690 -1.0834
v  0.5916 -0.5239 -0.5175
v  -0.5265 -0.5347 -0.8806
v  -0.0945 3.1589 -1.4235
v  0.3738 3.2018 0.0172
v  0.2175 6.3118 -1.3414
v  0.3857 6.3592 -0.8260
v  -0.9723 9.0631 -1.6260
v  -1.1303 9.1945 -1.1565
v  -0.5259 12.0939 -2.6845
v  -0.5585 8.9651 -1.9118
v  -0.0470 8.9373 -1.9047
v  -0.1429 11.9555 -2.9275
v  0.3668 8.9893 -1.6070
v  0.7136 12.0298 -2.6545
v  0.7136 12.4114 -1.8367
v  0.5248 9.1006 -1.1324
v  0.3668 9.2299 -0.6623
v  -0.0470 9.3288 -0.3767
v  -0.5259 12.4788 -1.8683
v  -0.5585 9.3591 -0.3844
v  -0.9723 9.3080 -0.6824
v  -0.3814 14.1161 -3.7791
v  -0.5193 14.3539 -3.4264
v  0.0229 16.7199 -5.2601
v  -0.0204 13.9563 -3.9888
v  0.4259 13.9352 -3.9752
v  0.8949 16.2537 -5.6939
v  1.2280 16.4033 -5.5021
v  0.7869 14.0600 -3.7430
v  0.9248 14.2828 -3.3806
v  1.3552 16.6624 -5.2074
v  0.8949 17.1109 -4.7572
v  0.7869 14.5191 -3.0270
v  0.4259 14.6795 -2.8176
v  0.1501 16.9801 -4.9662
v  -0.0204 14.7023 -2.8323
v  -0.3814 14.5780 -3.0649
v  0.3230 19.4688 -9.5189
v  0.2602 18.2209 -7.3911
v  0.1425 18.4997 -7.1587
v  0.5685 18.0554 -7.5432
v  0.9495 18.0667 -7.5572
v  0.9730 19.6664 -9.4376
v  1.2578 18.2507 -7.4281
v  1.0841 19.9637 -9.2679
v  1.3756 18.5373 -7.2054
v  1.2578 18.8167 -6.9738
v  0.9495 18.9819 -6.8213
v  0.5685 18.9699 -6.8064
v  0.2602 18.7856 -6.9352
v  0.3230 20.4209 -8.9532
v  -0.0762 22.2302 -14.9366
v  0.5795 22.0272 -14.7046
v  0.7826 21.0397 -11.8525
v  0.7826 21.6336 -11.6161
v  0.3949 22.2378 -14.9605
v  0.3949 22.5641 -14.8553
v  0.1477 22.4647 -15.1058
v  -0.2228 6.4359 0.0080
v  -1.2074 6.4066 -0.3106
v  -1.2074 6.3118 -1.3414
v  -0.2228 6.2825 -1.6600
v  0.5112 20.8515 -11.9136
v  0.0222 22.7493 -14.4409
v  -0.3223 22.2918 -14.5690
v  -0.0959 21.6175 -11.5756
v  -1.0265 -0.4889 0.6576
v  -1.3206 3.1854 -0.5331
v  0.5916 -0.4889 0.6576
v  -0.6734 3.2120 0.3573
v  -0.0959 21.0242 -11.8135
# 72 vertices

vn 0.8089 -0.0252 -0.5875
vn 0.8090 -0.0422 -0.5864
vn 0.3083 -0.1231 -0.9433
vn 0.3088 -0.0912 -0.9467
vn 0.9984 0.0570 -0.0030
vn 0.8097 -0.0553 -0.5842
vn 1.0000 0.0014 0.0026
vn -0.8025 -0.0413 -0.5952
vn -0.9938 0.1073 -0.0304
vn -0.9949 0.0932 -0.0389
vn -0.3056 -0.1681 -0.9372
vn -0.8061 -0.1630 -0.5688
vn 0.3116 -0.2251 -0.9232
vn -0.3074 -0.3511 -0.8845
vn 0.8099 -0.1886 -0.5555
vn 0.3089 -0.3983 -0.8637
vn 0.8065 -0.2870 -0.5170
vn 0.9979 -0.0596 0.0234
vn 0.9972 -0.0723 0.0211
vn 0.8090 0.1976 0.5536
vn 0.8061 0.0788 0.5866
vn 0.3098 0.3855 0.8692
vn 0.3078 0.2068 0.9287
vn -0.3066 0.4315 0.8484
vn -0.3099 0.2621 0.9139
vn -0.8039 0.3197 0.5016
vn -0.8075 0.2233 0.5460
vn -0.8016 -0.2375 -0.5487
vn -0.9926 0.0992 -0.0701
vn -0.9937 0.0867 -0.0710
vn -0.3062 -0.4789 -0.8228
vn -0.8068 -0.3211 -0.4959
vn 0.3091 -0.5331 -0.7876
vn -0.3093 -0.6023 -0.7359
vn 0.3066 -0.6474 -0.6978
vn 0.8044 -0.4400 -0.3993
vn 0.8081 -0.3761 -0.4534
vn 0.9964 -0.0686 0.0498
vn 0.9972 -0.0593 0.0458
vn 0.8098 0.3507 0.4704
vn 0.8051 0.2696 0.5283
vn 0.3111 0.6311 0.7106
vn 0.3087 0.5107 0.8024
vn -0.3050 0.6737 0.6731
vn -0.3067 0.5631 0.7674
vn -0.8019 0.4655 0.3746
vn -0.8049 0.4054 0.4334
vn -0.8072 -0.5254 -0.2691
vn -0.8111 -0.4633 -0.3569
vn -0.9998 -0.0093 0.0195
vn -0.3094 -0.8119 -0.4951
vn -0.3110 -0.7357 -0.6016
vn 0.3059 -0.7862 -0.5370
vn 0.3065 -0.7218 -0.6205
vn 0.8047 -0.4578 -0.3780
vn 0.8056 -0.4295 -0.4081
vn 0.9957 0.0485 -0.0788
vn 0.9985 0.0303 -0.0449
vn 0.8100 0.4838 0.3316
vn 0.3104 0.7560 0.5763
vn 0.8057 0.5391 0.2455
vn -0.3070 0.7427 0.5951
vn 0.3081 0.8266 0.4709
vn -0.8065 0.4508 0.3825
vn -0.3076 0.8018 0.5123
vn -0.8070 0.4730 0.3536
vn 0.2792 -0.7661 -0.5789
vn 0.7557 -0.4289 -0.4949
vn 0.8070 -0.5130 -0.2924
vn 0.9976 0.0273 -0.0640
vn 0.1890 -0.4479 -0.8738
vn 0.5536 -0.1896 -0.8110
vn 0.9384 0.1072 -0.3286
vn -0.0530 0.3062 -0.9505
vn 0.6928 0.2211 -0.6864
vn 0.3065 0.1109 0.9454
vn -0.3100 0.1209 0.9430
vn -0.8094 0.0913 0.5802
vn -0.9994 0.0338 -0.0067
vn -0.8060 -0.0290 -0.5912
vn 0.3103 -0.0836 -0.9470
vn 0.8069 0.0651 0.5872
vn 0.3077 -0.8564 -0.4147
vn -0.3115 0.9500 0.0205
vn -0.7889 0.6111 -0.0641
vn -0.8088 0.5244 0.2661
vn -0.6260 0.6081 -0.4882
vn -0.2615 0.8664 -0.4253
vn -0.8056 -0.1142 -0.5813
vn -0.9996 -0.0277 0.0012
vn -0.9997 -0.0225 0.0011
vn 0.9981 0.0617 -0.0026
vn -0.3083 0.1251 0.9430
vn -0.8086 0.0597 0.5853
vn -0.8081 0.0761 0.5842
vn -0.9979 -0.0346 0.0550
vn -0.9991 -0.0163 0.0380
vn -0.8094 -0.5485 -0.2098
vn -0.3105 -0.8700 -0.3830
vn -0.7865 -0.4563 -0.4162
vn -0.8074 -0.0896 -0.5832
vn -0.3079 -0.1157 -0.9443
vn -0.3067 -0.1504 -0.9399
vn -0.3074 0.1565 0.9386
vn 0.3052 0.1834 0.9345
vn 0.3069 0.1491 0.9400
vn 0.3091 0.8817 0.3563
vn -0.3093 0.8683 0.3879
vn 0.2791 0.9602 -0.0097
vn 0.8052 0.1233 0.5800
vn 0.8027 0.1476 0.5778
vn -0.3058 -0.0735 -0.9492
vn -0.7652 0.1974 -0.6127
vn -0.3094 -0.7765 -0.5489
vn 0.7566 0.6380 -0.1432
# 115 vertex normals

vt -0.0003 0.2588 0.0000
vt -0.0012 0.0025 0.0000
vt 0.1981 0.0025 0.0000
vt 0.0990 0.2588 0.0000
vt 0.9961 0.0025 0.0000
vt 0.9942 0.2588 0.0000
vt 0.7953 0.2588 0.0000
vt 0.0005 0.4851 0.0000
vt 0.9925 0.4851 0.0000
vt 0.8933 0.4851 0.0000
vt 0.2980 0.2588 0.0000
vt 0.3970 0.2588 0.0000
vt 0.2980 0.5117 0.0000
vt 0.1990 0.2588 0.0000
vt 0.1001 0.2588 0.0000
vt 0.1994 0.5117 0.0000
vt 0.0013 0.2588 0.0000
vt 0.0022 0.5117 0.0000
vt 0.9909 0.2588 0.0000
vt 0.9890 0.5117 0.0000
vt 0.7917 0.5117 0.0000
vt 0.8920 0.2588 0.0000
vt 0.7930 0.2588 0.0000
vt 0.6940 0.2588 0.0000
vt 0.4955 0.5117 0.0000
vt 0.5950 0.2588 0.0000
vt 0.4960 0.2588 0.0000
vt 0.2981 0.2588 0.0000
vt 0.3966 0.2588 0.0000
vt 0.3964 0.4876 0.0000
vt 0.1996 0.2588 0.0000
vt 0.1012 0.2588 0.0000
vt 0.1017 0.4876 0.0000
vt 0.0036 0.4876 0.0000
vt 0.0028 0.2588 0.0000
vt 0.8892 0.2588 0.0000
vt 0.9877 0.2588 0.0000
vt 0.9860 0.4876 0.0000
vt 0.8878 0.4876 0.0000
vt 0.6912 0.4876 0.0000
vt 0.7907 0.2588 0.0000
vt 0.6922 0.2588 0.0000
vt 0.4947 0.4876 0.0000
vt 0.5937 0.2588 0.0000
vt 0.4951 0.2588 0.0000
vt 0.2004 0.4657 0.0000
vt 0.2982 0.2588 0.0000
vt 0.3962 0.2588 0.0000
vt 0.2002 0.2588 0.0000
vt 0.1023 0.2588 0.0000
vt 0.0049 0.4657 0.0000
vt 0.0044 0.2588 0.0000
vt 0.9845 0.2588 0.0000
vt 0.9834 0.4657 0.0000
vt 0.8856 0.4657 0.0000
vt 0.8865 0.2588 0.0000
vt 0.7884 0.2588 0.0000
vt 0.6904 0.2588 0.0000
vt 0.5923 0.2588 0.0000
vt 0.4943 0.2588 0.0000
vt 0.5919 0.4657 0.0000
vt 0.2983 0.9805 0.0000
vt 0.0061 0.9542 0.0000
vt 0.0054 0.6923 0.0000
vt 0.7869 0.6923 0.0000
vt 0.9822 0.6923 0.0000
vt 0.9809 0.9542 0.0000
vt 0.0061 0.9805 0.0000
vt 0.7858 0.9805 0.0000
vt 0.9807 0.9805 0.0000
vt 0.0549 0.9989 0.0000
vt 0.9319 0.9989 0.0000
vt 0.6948 0.4851 0.0000
vt 0.6940 0.6923 0.0000
vt 0.5950 0.6923 0.0000
vt 0.4964 0.4851 0.0000
vt 0.4960 0.6923 0.0000
vt 0.3970 0.6923 0.0000
vt 0.2979 0.4851 0.0000
vt 0.2980 0.6923 0.0000
vt 0.1990 0.6923 0.0000
vt 0.1001 0.6923 0.0000
vt 0.0996 0.4851 0.0000
vt 0.0013 0.6923 0.0000
vt 0.9909 0.6923 0.0000
vt 0.8920 0.6923 0.0000
vt 0.7930 0.6923 0.0000
vt 0.6922 0.6923 0.0000
vt 0.5937 0.6923 0.0000
vt 0.4951 0.6923 0.0000
vt 0.3966 0.6923 0.0000
vt 0.2981 0.6923 0.0000
vt 0.1996 0.6923 0.0000
vt 0.1012 0.6923 0.0000
vt 0.0028 0.6923 0.0000
vt 0.9877 0.6923 0.0000
vt 0.8892 0.6923 0.0000
vt 0.7907 0.6923 0.0000
vt 0.6904 0.6923 0.0000
vt 0.5923 0.6923 0.0000
vt 0.4943 0.6923 0.0000
vt 0.3962 0.6923 0.0000
vt 0.2982 0.6923 0.0000
vt 0.2002 0.6923 0.0000
vt 0.1023 0.6923 0.0000
vt 0.0044 0.6923 0.0000
vt 0.9845 0.6923 0.0000
vt 0.8865 0.6923 0.0000
vt 0.7884 0.6923 0.0000
vt 0.1030 0.6923 0.0000
vt 0.5909 0.9542 0.0000
vt 0.3958 0.9542 0.0000
vt 0.4937 0.6923 0.0000
vt 0.5420 0.9989 0.0000
vt 0.4973 0.0025 0.0000
vt 0.3973 0.2588 0.0000
vt 0.7966 0.0025 0.0000
vt 0.5963 0.2588 0.0000
vt 0.2983 0.6923 0.0000
vt 0.4445 0.9989 0.0000
# 120 texture coords

g palm_trunk
usemtl Material__49
s 1
f 1/1/1 2/2/2 3/3/3 
f 3/3/3 4/4/4 1/1/1 
f 2/5/2 1/6/1 5/7/5 
f 6/8/6 1/1/1 4/4/4 
f 1/6/1 6/9/6 7/10/7 
f 8/11/8 9/12/9 10/13/10 
f 11/14/11 8/11/8 10/13/12 
f 12/15/13 11/14/11 13/16/14 
f 14/17/15 12/15/13 13/16/16 
f 13/16/16 15/18/17 14/17/15 
f 14/19/15 15/20/17 16/21/18 
f 16/21/18 17/22/19 14/19/15 
f 16/21/20 18/23/21 17/22/19 
f 16/21/22 19/24/23 18/23/21 
f 20/25/24 21/26/25 19/24/23 
f 20/25/26 22/27/27 21/26/25 
f 10/13/10 9/12/9 22/27/27 
f 23/28/28 24/29/29 25/30/30 
f 26/31/31 23/28/28 25/30/32 
f 27/32/33 26/31/31 28/33/34 
f 28/33/35 29/34/36 30/35/37 
f 30/35/37 27/32/33 28/33/35 
f 31/36/38 30/37/37 29/38/36 
f 29/38/36 32/39/39 31/36/38 
f 33/40/40 34/41/41 31/36/38 
f 33/40/42 35/42/43 34/41/41 
f 36/43/44 37/44/45 35/42/43 
f 36/43/46 38/45/47 37/44/45 
f 25/30/30 24/29/29 38/45/47 
f 39/46/48 40/47/49 41/48/50 
f 39/46/51 42/49/52 40/47/49 
f 39/46/53 43/50/54 42/49/52 
f 43/50/54 39/46/53 44/51/55 
f 44/51/55 45/52/56 43/50/54 
f 45/53/56 44/54/55 46/55/57 
f 46/55/57 47/56/58 45/53/56 
f 48/57/59 47/56/58 46/55/57 
f 49/58/60 48/57/59 46/55/61 
f 50/59/62 49/58/60 46/55/63 
f 51/60/64 50/59/62 52/61/65 
f 41/48/50 51/60/64 52/61/66 
f 53/62/67 54/63/68 55/64/69 
f 56/65/70 55/66/69 54/67/68 
f 53/62/71 57/68/72 54/63/68 
f 58/69/73 54/67/68 57/70/72 
f 57/68/72 53/62/71 59/71/74 
f 58/69/75 57/70/72 59/72/74 
f 60/73/76 19/74/23 21/75/25 
f 61/76/77 21/75/25 22/77/27 
f 61/76/78 22/77/27 9/78/9 
f 62/79/79 9/78/9 8/80/8 
f 62/79/80 8/80/8 11/81/11 
f 11/81/11 12/82/13 63/83/81 
f 12/82/13 14/84/15 6/8/6 
f 6/8/6 63/83/81 12/82/13 
f 7/10/7 6/9/6 14/85/15 
f 14/85/15 17/86/19 7/10/7 
f 17/86/19 18/87/21 60/73/82 
f 18/87/21 19/74/23 60/73/76 
f 35/88/43 37/89/45 20/25/24 
f 37/89/45 38/90/47 20/25/26 
f 38/90/47 24/91/29 10/13/10 
f 24/91/29 23/92/28 10/13/12 
f 10/13/12 23/92/28 26/93/31 
f 13/16/14 26/93/31 27/94/33 
f 27/94/33 30/95/37 15/18/17 
f 15/18/17 13/16/16 27/94/33 
f 30/96/37 31/97/38 16/21/18 
f 16/21/18 15/20/17 30/96/37 
f 31/97/38 34/98/41 16/21/20 
f 16/21/20 34/98/41 35/88/43 
f 33/40/42 49/99/60 50/100/62 
f 50/100/62 51/101/64 36/43/46 
f 51/101/64 41/102/50 25/30/30 
f 41/102/50 40/103/49 25/30/32 
f 40/103/49 42/104/52 28/33/34 
f 42/104/52 43/105/54 28/33/35 
f 45/106/56 29/34/36 28/33/35 
f 28/33/35 43/105/54 45/106/56 
f 45/107/56 47/108/58 32/39/39 
f 32/39/39 29/38/36 45/107/56 
f 32/39/39 47/108/58 48/109/59 
f 48/109/59 49/99/60 33/40/42 
f 64/110/83 55/64/69 44/51/55 
f 46/55/57 44/54/55 55/66/69 
f 55/64/69 64/110/83 53/62/67 
f 54/67/68 58/69/73 56/65/70 
f 65/111/84 66/112/85 67/113/86 
f 66/112/87 58/69/88 59/114/74 
f 3/3/89 68/115/90 69/116/91 
f 5/7/5 70/117/92 2/5/2 
f 4/4/4 63/83/81 6/8/6 
f 7/10/7 5/7/5 1/6/1 
f 55/66/69 56/65/70 46/55/57 
f 44/51/55 39/46/53 64/110/83 
f 71/118/93 69/116/94 68/115/95 
f 69/116/94 71/118/93 61/76/77 
f 61/76/78 62/79/79 69/116/91 
f 9/78/9 62/79/79 61/76/78 
f 10/13/10 20/25/26 38/90/47 
f 22/27/27 20/25/26 10/13/10 
f 35/42/43 33/40/42 36/43/44 
f 50/100/62 36/43/44 33/40/42 
f 52/61/66 39/46/96 41/48/50 
f 72/119/97 39/46/96 52/61/66 
f 39/46/48 72/119/98 64/110/99 
f 64/110/99 72/119/98 66/112/100 
f 69/116/101 4/4/102 3/3/103 
f 4/4/102 69/116/101 62/79/80 
f 68/115/104 70/117/105 71/118/106 
f 19/24/23 16/21/22 20/25/24 
f 20/25/24 16/21/22 35/88/43 
f 25/30/32 28/33/34 26/31/31 
f 28/33/34 25/30/32 40/103/49 
f 56/65/107 67/113/108 52/61/65 
f 67/113/108 56/65/107 65/111/109 
f 21/75/25 61/76/77 60/73/76 
f 60/73/76 61/76/77 71/118/93 
f 60/73/76 71/118/106 5/7/110 
f 70/117/111 5/7/110 71/118/106 
f 52/61/65 46/55/63 56/65/107 
f 46/55/63 52/61/65 50/59/62 
f 62/79/80 63/83/112 4/4/102 
f 11/81/11 63/83/112 62/79/80 
f 10/13/12 13/16/14 11/14/11 
f 26/93/31 13/16/14 10/13/12 
f 60/73/82 7/10/7 17/86/19 
f 5/7/5 7/10/7 60/73/82 
f 53/62/113 66/112/87 59/120/74 
f 66/112/100 53/62/114 64/110/99 
f 25/30/30 36/43/46 51/101/64 
f 38/45/47 36/43/46 25/30/30 
f 48/109/59 33/40/40 32/39/39 
f 31/36/38 32/39/39 33/40/40 
f 52/61/66 67/113/86 72/119/97 
f 72/119/97 67/113/86 66/112/85 
f 58/69/115 65/111/109 56/65/107 
f 66/112/85 65/111/84 58/69/88 
# 0 polygons - 138 triangles

