# 3ds Max Wavefront OBJ Exporter v0.97b - (c)2007 guruware
# File Created: 25.08.2016 21:40:37

#
# object GeoSphere005
#

v  0.0332 9.4997 -0.0394
v  -6.7765 4.7038 4.2439
v  0.5894 3.9054 8.3770
v  7.1816 3.1323 -4.4129
v  -0.6699 3.9175 -8.5935
v  0.0038 -1.7933 -0.0045
v  -4.7767 8.1006 4.9897
v  -2.6900 8.0862 7.6067
v  5.9345 8.5153 0.9344
v  -7.5078 8.0492 -2.7940
v  -5.9677 0.1153 1.7382
v  3.3782 0.1009 5.0657
v  3.7107 0.5299 -4.8534
v  3.3816 0.0639 -7.2983
v  -3.6007 5.5285 8.0047
v  7.2775 5.6905 4.3594
v  1.6802 2.1523 -5.7239
v  -9.1979 3.5533 -2.0786
# 18 vertices

vn -0.2141 0.9604 0.1783
vn -0.2141 0.9604 0.1783
vn -0.2141 0.9604 0.1783
vn -0.7780 0.2299 0.5847
vn -0.7780 0.2299 0.5847
vn -0.7780 0.2299 0.5847
vn -0.7554 0.2532 0.6043
vn -0.7554 0.2532 0.6043
vn -0.7554 0.2532 0.6043
vn -0.0249 0.1140 0.9932
vn -0.0249 0.1140 0.9932
vn -0.0249 0.1140 0.9932
vn 0.1726 0.9351 0.3094
vn 0.1726 0.9351 0.3094
vn 0.1726 0.9351 0.3094
vn 0.3924 0.3252 0.8604
vn 0.3924 0.3252 0.8604
vn 0.3924 0.3252 0.8604
vn 0.4285 0.6621 0.6149
vn 0.4285 0.6621 0.6149
vn 0.4285 0.6621 0.6149
vn 0.9672 0.2303 -0.1069
vn 0.9672 0.2303 -0.1069
vn 0.9672 0.2303 -0.1069
vn 0.2338 0.3524 -0.9062
vn 0.2338 0.3524 -0.9062
vn 0.2338 0.3524 -0.9062
vn 0.0481 0.5741 -0.8174
vn 0.0481 0.5741 -0.8174
vn 0.0481 0.5741 -0.8174
vn 0.2058 0.5125 -0.8337
vn 0.2058 0.5125 -0.8337
vn 0.2058 0.5125 -0.8337
vn 0.6879 0.7221 0.0735
vn 0.6879 0.7221 0.0735
vn 0.6879 0.7221 0.0735
vn -0.2968 0.9502 0.0951
vn -0.2968 0.9502 0.0951
vn -0.2968 0.9502 0.0951
vn -0.6083 0.0717 -0.7905
vn -0.6083 0.0717 -0.7905
vn -0.6083 0.0717 -0.7905
vn -0.9085 0.2733 0.3162
vn -0.9085 0.2733 0.3162
vn -0.9085 0.2733 0.3162
vn -0.9065 0.3323 0.2605
vn -0.9065 0.3323 0.2605
vn -0.9065 0.3323 0.2605
vn -0.2025 -0.8008 0.5637
vn -0.2025 -0.8008 0.5637
vn -0.2025 -0.8008 0.5637
vn -0.4026 -0.6165 0.6766
vn -0.4026 -0.6165 0.6766
vn -0.4026 -0.6165 0.6766
vn -0.2813 -0.5494 0.7868
vn -0.2813 -0.5494 0.7868
vn -0.2813 -0.5494 0.7868
vn -0.6650 -0.3358 0.6671
vn -0.6650 -0.3358 0.6671
vn -0.6650 -0.3358 0.6671
vn 0.6496 -0.7598 -0.0253
vn 0.6496 -0.7598 -0.0253
vn 0.6496 -0.7598 -0.0253
vn 0.6879 -0.6722 0.2736
vn 0.6879 -0.6722 0.2736
vn 0.6879 -0.6722 0.2736
vn 0.8993 -0.4373 0.0030
vn 0.8993 -0.4373 0.0030
vn 0.8993 -0.4373 0.0030
vn 0.5599 -0.2016 0.8037
vn 0.5599 -0.2016 0.8037
vn 0.5599 -0.2016 0.8037
vn 0.7271 -0.6808 0.0882
vn 0.7271 -0.6808 0.0882
vn 0.7271 -0.6808 0.0882
vn 0.8131 0.5548 -0.1765
vn 0.8131 0.5548 -0.1765
vn 0.8131 0.5548 -0.1765
vn 0.7735 0.5772 -0.2619
vn 0.7735 0.5772 -0.2619
vn 0.7735 0.5772 -0.2619
vn 0.2611 -0.1300 -0.9565
vn 0.2611 -0.1300 -0.9565
vn 0.2611 -0.1300 -0.9565
vn -0.4773 -0.7309 -0.4879
vn -0.4773 -0.7309 -0.4879
vn -0.4773 -0.7309 -0.4879
vn -0.8766 -0.2616 0.4040
vn -0.8766 -0.2616 0.4040
vn -0.8766 -0.2616 0.4040
vn -0.4914 -0.7112 -0.5027
vn -0.4914 -0.7112 -0.5027
vn -0.4914 -0.7112 -0.5027
vn -0.4959 -0.5256 -0.6912
vn -0.4959 -0.5256 -0.6912
vn -0.4959 -0.5256 -0.6912
# 96 vertex normals

vt 0.3750 1.0000 53.9743
vt 0.5000 0.5000 53.9743
vt 0.7500 0.5000 53.9743
vt 1.0000 0.5000 53.9743
vt 0.2500 0.5000 53.9743
vt 0.3750 0.0000 53.9743
vt 0.5000 0.7500 53.9743
vt 0.7500 0.7500 53.9743
vt 1.0000 0.7500 53.9743
vt 0.2500 0.7500 53.9743
vt 0.5000 0.2500 53.9743
vt 0.7500 0.2500 53.9743
vt 1.0000 0.2500 53.9743
vt 0.2500 0.2500 53.9743
vt 0.6250 0.5000 53.9743
vt 0.8750 0.5000 53.9743
vt 0.1250 0.5000 53.9743
vt 0.3750 0.5000 53.9743
vt 0.6250 1.0000 53.9743
vt 0.8750 1.0000 53.9743
vt 0.1250 1.0000 53.9743
vt 0.0000 0.7500 53.9743
vt 0.0000 0.7500 53.9743
vt 0.0000 0.5000 53.9743
vt 0.0000 0.7500 53.9743
vt 0.6250 0.0000 53.9743
vt 0.8750 0.0000 53.9743
vt 0.1250 0.0000 53.9743
vt 0.0000 0.2500 53.9743
vt 0.0000 0.2500 53.9743
vt 0.0000 0.2500 53.9743
vt 0.0000 0.5000 53.9743
# 32 texture coords

g GeoSphere005
s off
f 1/19/1 7/7/2 8/8/3 
f 7/7/4 2/2/5 15/15/6 
f 7/7/7 15/15/8 8/8/9 
f 8/8/10 15/15/11 3/3/12 
f 1/20/13 8/8/14 9/9/15 
f 8/8/16 3/3/17 16/16/18 
f 8/8/19 16/16/20 9/9/21 
f 9/9/22 16/16/23 4/4/24 
f 1/21/25 9/22/26 10/10/27 
f 9/23/28 4/24/29 17/17/30 
f 9/25/31 17/17/32 10/10/33 
f 10/10/34 17/17/35 5/5/36 
f 1/1/37 10/10/38 7/7/39 
f 10/10/40 5/5/41 18/18/42 
f 10/10/43 18/18/44 7/7/45 
f 7/7/46 18/18/47 2/2/48 
f 6/26/49 12/12/50 11/11/51 
f 12/12/52 3/3/53 15/15/54 
f 12/12/55 15/15/56 11/11/57 
f 11/11/58 15/15/59 2/2/60 
f 6/27/61 13/13/62 12/12/63 
f 13/13/64 4/4/65 16/16/66 
f 13/13/67 16/16/68 12/12/69 
f 12/12/70 16/16/71 3/3/72 
f 6/28/73 14/14/74 13/29/75 
f 14/14/76 5/5/77 17/17/78 
f 14/14/79 17/17/80 13/30/81 
f 13/31/82 17/17/83 4/32/84 
f 6/6/85 11/11/86 14/14/87 
f 11/11/88 2/2/89 18/18/90 
f 11/11/91 18/18/92 14/14/93 
f 14/14/94 18/18/95 5/5/96 
# 0 polygons - 32 triangles

