# 3ds Max Wavefront OBJ Exporter v0.97b - (c)2007 guruware
# File Created: 25.08.2016 21:40:28

#
# object GeoSphere010
#

v  0.1177 9.9780 -0.3309
v  -7.4233 4.7011 4.6236
v  0.6513 3.7832 9.1036
v  7.7891 3.0862 -4.8478
v  -0.5190 4.1057 -9.2769
v  -0.0044 -2.3162 -0.0178
v  -5.2554 8.4547 5.2648
v  -2.8247 8.4217 8.1661
v  6.3910 8.9225 0.8194
v  -7.9647 8.4010 -3.1092
v  -6.4440 -0.2714 1.9064
v  3.7130 -0.2610 5.4913
v  4.3659 0.3152 -5.0495
v  3.7910 -0.1527 -7.8447
v  -3.9543 5.4871 8.6635
v  7.9269 5.7575 4.7222
v  2.1311 2.4464 -6.1497
v  -9.9035 3.4430 -2.2779
# 18 vertices

vn 0.2002 -0.9624 -0.1834
vn 0.2002 -0.9624 -0.1834
vn 0.2002 -0.9624 -0.1834
vn 0.7686 -0.2389 -0.5934
vn 0.7686 -0.2389 -0.5934
vn 0.7686 -0.2389 -0.5934
vn 0.7357 -0.2709 -0.6208
vn 0.7357 -0.2709 -0.6208
vn 0.7357 -0.2709 -0.6208
vn 0.0285 -0.1249 -0.9918
vn 0.0285 -0.1249 -0.9918
vn 0.0285 -0.1249 -0.9918
vn -0.1701 -0.9370 -0.3050
vn -0.1701 -0.9370 -0.3050
vn -0.1701 -0.9370 -0.3050
vn -0.3914 -0.3259 -0.8606
vn -0.3914 -0.3259 -0.8606
vn -0.3914 -0.3259 -0.8606
vn -0.4315 -0.6677 -0.6066
vn -0.4315 -0.6677 -0.6066
vn -0.4315 -0.6677 -0.6066
vn -0.9662 -0.2344 0.1077
vn -0.9662 -0.2344 0.1077
vn -0.9662 -0.2344 0.1077
vn -0.2391 -0.2857 0.9280
vn -0.2391 -0.2857 0.9280
vn -0.2391 -0.2857 0.9280
vn -0.0957 -0.5691 0.8167
vn -0.0957 -0.5691 0.8167
vn -0.0957 -0.5691 0.8167
vn -0.1984 -0.5285 0.8254
vn -0.1984 -0.5285 0.8254
vn -0.1984 -0.5285 0.8254
vn -0.6502 -0.7593 -0.0267
vn -0.6502 -0.7593 -0.0267
vn -0.6502 -0.7593 -0.0267
vn 0.2960 -0.9512 -0.0870
vn 0.2960 -0.9512 -0.0870
vn 0.2960 -0.9512 -0.0870
vn 0.6009 -0.0708 0.7962
vn 0.6009 -0.0708 0.7962
vn 0.6009 -0.0708 0.7962
vn 0.9132 -0.2833 -0.2929
vn 0.9132 -0.2833 -0.2929
vn 0.9132 -0.2833 -0.2929
vn 0.9103 -0.3382 -0.2387
vn 0.9103 -0.3382 -0.2387
vn 0.9103 -0.3382 -0.2387
vn 0.1974 0.8028 -0.5626
vn 0.1974 0.8028 -0.5626
vn 0.1974 0.8028 -0.5626
vn 0.3967 0.6271 -0.6704
vn 0.3967 0.6271 -0.6704
vn 0.3967 0.6271 -0.6704
vn 0.2755 0.5577 -0.7830
vn 0.2755 0.5577 -0.7830
vn 0.2755 0.5577 -0.7830
vn 0.6626 0.3445 -0.6651
vn 0.6626 0.3445 -0.6651
vn 0.6626 0.3445 -0.6651
vn -0.6397 0.7684 0.0206
vn -0.6397 0.7684 0.0206
vn -0.6397 0.7684 0.0206
vn -0.7282 0.6399 -0.2456
vn -0.7282 0.6399 -0.2456
vn -0.7282 0.6399 -0.2456
vn -0.8991 0.4371 -0.0214
vn -0.8991 0.4371 -0.0214
vn -0.8991 0.4371 -0.0214
vn -0.5619 0.2029 -0.8019
vn -0.5619 0.2029 -0.8019
vn -0.5619 0.2029 -0.8019
vn -0.6772 0.7349 -0.0371
vn -0.6772 0.7349 -0.0371
vn -0.6772 0.7349 -0.0371
vn -0.8101 -0.5000 0.3061
vn -0.8101 -0.5000 0.3061
vn -0.8101 -0.5000 0.3061
vn -0.8195 -0.4958 0.2876
vn -0.8195 -0.4958 0.2876
vn -0.8195 -0.4958 0.2876
vn -0.2463 0.1637 0.9552
vn -0.2463 0.1637 0.9552
vn -0.2463 0.1637 0.9552
vn 0.4779 0.7123 0.5141
vn 0.4779 0.7123 0.5141
vn 0.4779 0.7123 0.5141
vn 0.8820 0.2687 -0.3872
vn 0.8820 0.2687 -0.3872
vn 0.8820 0.2687 -0.3872
vn 0.4772 0.7133 0.5133
vn 0.4772 0.7133 0.5133
vn 0.4772 0.7133 0.5133
vn 0.4815 0.5075 0.7145
vn 0.4815 0.5075 0.7145
vn 0.4815 0.5075 0.7145
# 96 vertex normals

vt 0.3750 1.0000 53.9743
vt 0.5000 0.5000 53.9743
vt 0.7500 0.5000 53.9743
vt 1.0000 0.5000 53.9743
vt 0.2500 0.5000 53.9743
vt 0.3750 0.0000 53.9743
vt 0.5000 0.7500 53.9743
vt 0.7500 0.7500 53.9743
vt 1.0000 0.7500 53.9743
vt 0.2500 0.7500 53.9743
vt 0.5000 0.2500 53.9743
vt 0.7500 0.2500 53.9743
vt 1.0000 0.2500 53.9743
vt 0.2500 0.2500 53.9743
vt 0.6250 0.5000 53.9743
vt 0.8750 0.5000 53.9743
vt 0.1250 0.5000 53.9743
vt 0.3750 0.5000 53.9743
vt 0.6250 1.0000 53.9743
vt 0.8750 1.0000 53.9743
vt 0.1250 1.0000 53.9743
vt 0.0000 0.7500 53.9743
vt 0.0000 0.7500 53.9743
vt 0.0000 0.5000 53.9743
vt 0.0000 0.7500 53.9743
vt 0.6250 0.0000 53.9743
vt 0.8750 0.0000 53.9743
vt 0.1250 0.0000 53.9743
vt 0.0000 0.2500 53.9743
vt 0.0000 0.2500 53.9743
vt 0.0000 0.2500 53.9743
vt 0.0000 0.5000 53.9743
# 32 texture coords

g GeoSphere010
s off
f 1/19/1 8/8/2 7/7/3 
f 7/7/4 15/15/5 2/2/6 
f 7/7/7 8/8/8 15/15/9 
f 8/8/10 3/3/11 15/15/12 
f 1/20/13 9/9/14 8/8/15 
f 8/8/16 16/16/17 3/3/18 
f 8/8/19 9/9/20 16/16/21 
f 9/9/22 4/4/23 16/16/24 
f 1/21/25 10/10/26 9/22/27 
f 9/23/28 17/17/29 4/24/30 
f 9/25/31 10/10/32 17/17/33 
f 10/10/34 5/5/35 17/17/36 
f 1/1/37 7/7/38 10/10/39 
f 10/10/40 18/18/41 5/5/42 
f 10/10/43 7/7/44 18/18/45 
f 7/7/46 2/2/47 18/18/48 
f 6/26/49 11/11/50 12/12/51 
f 12/12/52 15/15/53 3/3/54 
f 12/12/55 11/11/56 15/15/57 
f 11/11/58 2/2/59 15/15/60 
f 6/27/61 12/12/62 13/13/63 
f 13/13/64 16/16/65 4/4/66 
f 13/13/67 12/12/68 16/16/69 
f 12/12/70 3/3/71 16/16/72 
f 6/28/73 13/29/74 14/14/75 
f 14/14/76 17/17/77 5/5/78 
f 14/14/79 13/30/80 17/17/81 
f 13/31/82 4/32/83 17/17/84 
f 6/6/85 14/14/86 11/11/87 
f 11/11/88 18/18/89 2/2/90 
f 11/11/91 14/14/92 18/18/93 
f 14/14/94 5/5/95 18/18/96 
# 0 polygons - 32 triangles

