# 3ds Max Wavefront OBJ Exporter v0.97b - (c)2007 guruware
# File Created: 28.08.2016 18:07:22

#
# object rock
#

v  0.8731 -2.8357 0.9278
v  2.7803 -2.2790 2.2027
v  2.4347 -1.7870 3.8576
v  0.9659 -2.0428 3.3645
v  4.7887 -0.9114 3.7707
v  3.3706 -0.8630 5.4186
v  1.6548 -0.4333 6.1588
v  5.8513 0.6376 3.4687
v  5.0240 0.9313 4.8438
v  4.2494 0.4610 5.6223
v  6.3844 2.0235 2.5962
v  5.1983 2.0471 4.5094
v  3.3325 2.2101 6.1144
v  3.6569 0.0844 6.1843
v  2.9420 0.8044 6.7940
v  1.8775 1.7063 6.9800
v  0.5451 1.5579 6.7015
v  1.1813 2.8826 6.5999
v  -0.8133 3.1152 6.1535
v  -1.1381 -2.1970 2.5688
v  -1.6858 -2.7915 0.5917
v  -2.0024 -1.4499 3.5142
v  -4.6061 -1.8248 0.2295
v  -1.7503 1.4087 5.8061
v  -2.4861 0.3300 5.0045
v  -3.3536 2.5106 5.1326
v  -6.1189 1.4125 2.6916
v  -3.5438 -0.6232 3.7217
v  -5.9148 -0.4468 1.8115
v  -6.8301 0.1303 -0.5491
v  -6.2445 -0.0134 -2.4205
v  -6.8538 1.3066 -1.4713
v  -6.1512 1.5183 -4.3644
v  0.4634 -2.9530 -0.8168
v  2.9678 -2.9877 -0.8675
v  0.4667 -2.2937 -1.6022
v  5.7007 -2.2022 -2.9099
v  -4.9619 0.5348 -4.0868
v  -3.1792 -0.1302 -3.4570
v  -4.5186 1.8122 -5.8935
v  -1.7924 1.8875 -6.7692
v  -0.0741 -0.9747 -3.2016
v  1.9542 -0.4204 -5.0293
v  2.1320 -0.1870 -6.6360
v  3.9961 -0.8672 -6.1694
v  -0.1039 1.0494 -8.0406
v  1.5739 0.5174 -7.9955
v  4.0363 -2.5430 0.4720
v  5.8389 -1.8339 0.3307
v  5.7568 -0.3978 -5.3481
v  7.3785 -0.5814 -3.0973
v  4.4272 0.7859 -6.4308
v  7.6526 1.5836 -3.0993
v  7.1236 -0.7755 -0.6250
v  6.9812 0.1421 0.4963
v  6.8891 0.8274 1.4201
v  7.5298 1.9172 0.2298
v  -0.4665 6.4845 -2.8569
v  -1.2150 6.7132 -0.4385
v  0.8677 6.6698 -0.0039
v  1.9262 6.4409 -1.7270
v  -2.5314 5.9572 2.4231
v  1.3808 6.0325 1.4042
v  4.9015 5.3621 -0.3757
v  -1.9658 4.5874 4.9403
v  -0.1312 4.1299 5.5710
v  0.5337 4.4233 4.6228
v  2.0588 4.8657 3.1353
v  4.2605 4.0140 3.2200
v  5.4346 3.2890 3.2037
v  6.3647 3.5847 1.4187
v  -2.1109 5.6947 -4.3691
v  -2.3619 6.0728 -2.1176
v  -3.7497 4.0437 -5.7042
v  -3.5632 5.2119 -1.5313
v  -5.3022 2.7001 -5.5017
v  -6.0762 2.3011 -3.0141
v  -5.4747 2.8725 -1.6220
v  -4.7987 3.9711 -0.1523
v  -4.8085 3.9021 2.6271
v  -3.7591 3.8323 4.3972
v  -1.2229 5.6009 -5.4687
v  -2.3682 5.1830 -6.1417
v  -1.9692 3.8982 -8.0292
v  -3.1040 4.2008 -7.4459
v  -0.5247 1.9949 -8.7288
v  -1.4846 2.1027 -8.6835
v  -2.3781 2.9843 -8.2050
v  -2.9368 3.4857 -7.7141
v  -3.1411 3.1556 -7.0502
v  -4.2081 2.7056 -6.5518
v  0.8614 5.7800 -4.0280
v  1.8393 4.8943 -4.4819
v  7.2998 3.1851 -0.2200
v  6.5904 3.6617 -2.0657
v  3.9177 3.8719 -4.3126
v  2.9604 2.8701 -6.0668
v  2.1402 1.8919 -7.3957
# 98 vertices

vn 0.0725 -0.9492 0.3061
vn 0.2205 -0.9214 0.3200
vn 0.1244 -0.9163 0.3806
vn 0.0191 -0.9097 0.4149
vn 0.3465 -0.8803 0.3240
vn 0.1824 -0.8902 0.4176
vn -0.0015 -0.8664 0.4994
vn 0.7473 -0.4109 0.5222
vn 0.8124 -0.2267 0.5373
vn 0.8032 -0.0651 0.5921
vn 0.7436 -0.1435 0.6531
vn 0.8500 0.0048 0.5268
vn 0.7552 0.0771 0.6510
vn 0.6530 0.1325 0.7457
vn 0.6427 -0.5140 0.5681
vn 0.7305 -0.1580 0.6644
vn 0.5235 -0.4580 0.7184
vn 0.3976 -0.6464 0.6512
vn 0.6816 0.1562 0.7148
vn 0.4510 -0.2720 0.8501
vn 0.1877 -0.5959 0.7809
vn -0.1405 -0.3325 0.9326
vn 0.1218 -0.0606 0.9907
vn -0.0125 0.0825 0.9965
vn -0.1890 -0.1300 0.9733
vn 0.3076 0.3435 0.8873
vn 0.0856 0.3519 0.9321
vn -0.1965 0.1685 0.9659
vn -0.0572 -0.9487 0.3109
vn -0.0956 -0.8991 0.4272
vn -0.1604 -0.9035 0.3974
vn -0.2121 -0.9181 0.3348
vn -0.1420 -0.8422 0.5201
vn -0.2416 -0.8565 0.4561
vn -0.3331 -0.8701 0.3633
vn -0.3142 -0.4086 0.8569
vn -0.3399 -0.2350 0.9106
vn -0.4094 -0.2149 0.8867
vn -0.4480 -0.3159 0.8363
vn -0.3731 0.0010 0.9278
vn -0.4911 -0.1956 0.8489
vn -0.5733 -0.2734 0.7724
vn -0.3123 -0.6583 0.6849
vn -0.4491 -0.4991 0.7411
vn -0.4380 -0.6441 0.6271
vn -0.3402 -0.7699 0.5399
vn -0.5740 -0.4009 0.7140
vn -0.5005 -0.6600 0.5603
vn -0.3876 -0.8296 0.4019
vn -0.7323 -0.6809 -0.0127
vn -0.8259 -0.5307 0.1904
vn -0.9005 -0.4341 0.0257
vn -0.7638 -0.6164 -0.1917
vn -0.9662 -0.1890 0.1754
vn -0.9999 -0.0168 0.0043
vn -0.9352 -0.2549 -0.2458
vn -0.0246 -0.9981 0.0558
vn -0.1629 -0.9772 -0.1365
vn -0.1509 -0.9218 -0.3572
vn -0.0174 -0.9828 -0.1840
vn -0.2355 -0.8721 -0.4289
vn -0.2186 -0.7470 -0.6279
vn -0.1032 -0.8743 -0.4744
vn -0.1919 -0.8614 -0.4702
vn -0.2946 -0.8171 -0.4955
vn -0.2122 -0.8176 -0.5352
vn -0.1383 -0.8508 -0.5069
vn -0.4124 -0.7059 -0.5760
vn -0.2666 -0.7549 -0.5992
vn -0.1578 -0.8126 -0.5611
vn -0.2519 -0.8386 -0.4830
vn -0.1847 -0.8356 -0.5174
vn -0.2108 -0.8163 -0.5377
vn -0.2056 -0.7880 -0.5803
vn -0.2201 -0.7894 -0.5731
vn -0.2098 -0.8464 -0.4895
vn -0.1136 -0.8502 -0.5140
vn -0.3199 -0.9237 -0.2110
vn -0.4007 -0.8993 -0.1750
vn -0.3265 -0.9180 -0.2250
vn -0.2676 -0.9230 -0.2765
vn -0.4936 -0.8655 -0.0851
vn -0.4147 -0.9003 -0.1324
vn -0.2789 -0.9064 -0.3173
vn 0.1275 -0.9647 0.2305
vn 0.2329 -0.9632 0.1340
vn 0.2777 -0.9322 0.2322
vn 0.2302 -0.9232 0.3079
vn 0.3380 -0.9366 0.0921
vn 0.3719 -0.9006 0.2248
vn 0.3349 -0.8795 0.3381
vn 0.5496 -0.6321 -0.5463
vn 0.4678 -0.5634 -0.6809
vn 0.6580 -0.2820 -0.6982
vn 0.7268 -0.4026 -0.5565
vn 0.4831 -0.2583 -0.8366
vn 0.6280 -0.0064 -0.7782
vn 0.7264 -0.0926 -0.6811
vn 0.6968 -0.7154 0.0516
vn 0.8886 -0.4553 0.0559
vn 0.8421 -0.5031 0.1944
vn 0.7139 -0.6629 0.2256
vn 0.9832 -0.1243 0.1337
vn 0.9254 -0.2271 0.3033
vn 0.7898 -0.4877 0.3719
vn 0.7954 -0.4714 0.3809
vn 0.9205 -0.2642 0.2878
vn 0.8988 -0.2209 0.3785
vn 0.8607 -0.3048 0.4078
vn 0.9561 -0.2859 0.0639
vn 0.9276 -0.2948 0.2293
vn 0.8967 -0.0696 0.4372
vn 0.0546 0.9955 -0.0772
vn 0.0000 0.9951 0.0994
vn 0.1475 0.9771 0.1531
vn 0.2061 0.9785 -0.0034
vn 0.0540 0.9590 0.2782
vn 0.2022 0.9178 0.3417
vn 0.2667 0.9486 0.1702
vn 0.1157 0.8831 0.4546
vn -0.0118 0.7928 0.6094
vn 0.1268 0.8021 0.5836
vn 0.2632 0.8540 0.4488
vn -0.1136 0.5774 0.8085
vn 0.1646 0.7249 0.6689
vn 0.3591 0.7895 0.4977
vn 0.1046 0.8782 0.4666
vn 0.2312 0.8420 0.4874
vn 0.2743 0.8293 0.4868
vn 0.2461 0.8456 0.4737
vn 0.2992 0.7638 0.5719
vn 0.3016 0.8270 0.4745
vn 0.3560 0.8524 0.3830
vn 0.4868 0.7858 0.3814
vn 0.4671 0.7457 0.4751
vn 0.5787 0.6218 0.5277
vn 0.6177 0.6579 0.4308
vn 0.5392 0.6262 0.5632
vn 0.6807 0.4653 0.5658
vn 0.7897 0.3757 0.4849
vn -0.2881 0.9409 -0.1781
vn -0.4692 0.8608 -0.1969
vn -0.4989 0.8598 -0.1091
vn -0.4079 0.9104 -0.0686
vn -0.6179 0.7639 -0.1862
vn -0.6098 0.7870 -0.0939
vn -0.5316 0.8467 -0.0209
vn -0.6578 0.7506 -0.0626
vn -0.7521 0.6460 -0.1304
vn -0.7520 0.6562 -0.0626
vn -0.7117 0.7023 0.0193
vn -0.8725 0.4549 -0.1786
vn -0.7778 0.6283 0.0130
vn -0.7401 0.6628 0.1138
vn -0.7638 0.6296 -0.1421
vn -0.8183 0.5724 -0.0515
vn -0.7734 0.6331 -0.0322
vn -0.7346 0.6767 -0.0492
vn -0.8843 0.4661 0.0257
vn -0.7845 0.6200 0.0126
vn -0.6679 0.7435 0.0342
vn -0.5596 0.6687 0.4896
vn -0.6944 0.5738 0.4343
vn -0.6218 0.4733 0.6240
vn -0.4521 0.5968 0.6629
vn -0.6923 0.3803 0.6132
vn -0.5841 0.2504 0.7721
vn -0.4203 0.3580 0.8338
vn -0.2172 0.9420 -0.2558
vn -0.0772 0.9005 -0.4279
vn -0.3150 0.8897 -0.3303
vn -0.4835 0.8572 -0.1773
vn -0.0548 0.8387 -0.5418
vn -0.4266 0.8216 -0.3781
vn -0.6300 0.7588 -0.1651
vn -0.1393 0.2468 -0.9590
vn -0.0545 -0.0671 -0.9963
vn -0.5059 -0.6434 -0.5746
vn -0.7130 -0.4163 -0.5642
vn -0.1794 -0.6299 -0.7557
vn -0.4597 -0.8162 -0.3499
vn -0.6016 -0.7339 -0.3152
vn -0.3607 0.3292 -0.8726
vn -0.7791 -0.3807 -0.4981
vn -0.8336 -0.1695 -0.5257
vn -0.7919 0.0434 -0.6092
vn -0.6191 -0.7252 -0.3015
vn -0.7582 -0.4601 -0.4620
vn -0.9298 -0.1010 -0.3538
vn -0.5591 0.5530 -0.6177
vn -0.4384 0.0454 -0.8976
vn -0.5588 -0.1319 -0.8187
vn -0.6680 0.2667 -0.6947
vn -0.2593 -0.4636 -0.8473
vn -0.4024 -0.4483 -0.7982
vn -0.6396 -0.2426 -0.7295
vn 0.1881 0.9125 -0.3632
vn 0.3640 0.8369 -0.4088
vn 0.3392 0.8157 -0.4686
vn 0.2690 0.8279 -0.4921
vn 0.4763 0.7602 -0.4418
vn 0.4257 0.7382 -0.5233
vn 0.3569 0.7266 -0.5872
vn 0.7385 0.6713 0.0627
vn 0.7546 0.5903 0.2866
vn 0.8395 0.5393 0.0663
vn 0.7569 0.6414 -0.1253
vn 0.8600 0.3141 0.4022
vn 0.9511 0.2410 0.1932
vn 0.8876 0.4604 -0.0134
vn 0.4165 0.8147 -0.4034
vn 0.4817 0.7155 -0.5060
vn 0.4620 0.6911 -0.5558
vn 0.4120 0.7525 -0.5138
vn 0.5431 0.5797 -0.6074
vn 0.4682 0.6327 -0.6168
vn 0.3870 0.6917 -0.6097
vn 0.4038 0.5696 -0.7159
vn 0.4836 0.5353 -0.6925
vn 0.4637 0.4587 -0.7580
vn 0.4173 0.4293 -0.8010
vn 0.5558 0.5063 -0.6593
vn 0.5195 0.4298 -0.7385
vn 0.4539 0.2155 -0.8646
# 224 vertex normals

vt 0.6250 1.0000 53.9743
vt 0.5625 0.8750 53.9743
vt 0.6250 0.8333 53.9743
vt 0.6875 0.8750 53.9743
vt 0.5000 0.7269 53.9743
vt 0.6250 0.7500 53.9743
vt 0.7500 0.7269 53.9743
vt 0.5000 0.6042 53.9743
vt 0.5417 0.5833 53.9743
vt 0.5729 0.6250 53.9743
vt 0.5000 0.5000 53.9743
vt 0.5521 0.5000 53.9743
vt 0.6250 0.5000 53.9743
vt 0.6250 0.6667 53.9743
vt 0.6771 0.6250 53.9743
vt 0.7083 0.5833 53.9743
vt 0.7500 0.6042 53.9743
vt 0.6979 0.5000 53.9743
vt 0.7500 0.5000 53.9743
vt 0.8750 1.0000 53.9743
vt 0.8125 0.8750 53.9743
vt 0.8750 0.8333 53.9743
vt 0.9375 0.8750 53.9743
vt 0.8750 0.7500 53.9743
vt 1.0000 0.7500 53.9743
vt 0.7917 0.5833 53.9743
vt 0.8229 0.6250 53.9743
vt 0.8021 0.5000 53.9743
vt 0.8750 0.5000 53.9743
vt 0.8750 0.6667 53.9743
vt 0.9271 0.6250 53.9743
vt 0.9583 0.5833 53.9743
vt 1.0000 0.6250 53.9743
vt 0.9479 0.5000 53.9743
vt 1.0000 0.5000 53.9743
vt 0.1250 1.0000 53.9743
vt 0.0625 0.8750 53.9743
vt 0.1250 0.8333 53.9743
vt 0.1875 0.8750 53.9743
vt 0.0000 0.7500 53.9743
vt 0.1250 0.7500 53.9743
vt 0.2500 0.7269 53.9743
vt 0.0000 0.6250 53.9743
vt 0.0417 0.5833 53.9743
vt 0.0625 0.6250 53.9743
vt 0.0000 0.5000 53.9743
vt 0.0625 0.5000 53.9743
vt 0.1250 0.5000 53.9743
vt 0.1250 0.6667 53.9743
vt 0.1771 0.6250 53.9743
vt 0.2083 0.5833 53.9743
vt 0.2500 0.6042 53.9743
vt 0.1979 0.5000 53.9743
vt 0.2500 0.5000 53.9743
vt 0.3750 1.0000 53.9743
vt 0.3125 0.8750 53.9743
vt 0.3750 0.8333 53.9743
vt 0.4375 0.8750 53.9743
vt 0.3750 0.7500 53.9743
vt 0.2917 0.5833 53.9743
vt 0.3229 0.6250 53.9743
vt 0.3021 0.5000 53.9743
vt 0.3750 0.5000 53.9743
vt 0.3750 0.6667 53.9743
vt 0.4271 0.6250 53.9743
vt 0.4583 0.5833 53.9743
vt 0.4479 0.5000 53.9743
vt 0.6250 0.0000 53.9743
vt 0.6875 0.1250 53.9743
vt 0.6250 0.1667 53.9743
vt 0.5625 0.1250 53.9743
vt 0.7500 0.2731 53.9743
vt 0.6250 0.2500 53.9743
vt 0.5000 0.2731 53.9743
vt 0.7500 0.3958 53.9743
vt 0.7083 0.4167 53.9743
vt 0.6771 0.3750 53.9743
vt 0.6250 0.3333 53.9743
vt 0.5729 0.3750 53.9743
vt 0.5417 0.4167 53.9743
vt 0.5000 0.3958 53.9743
vt 0.8750 0.0000 53.9743
vt 0.9375 0.1250 53.9743
vt 0.8750 0.1667 53.9743
vt 0.8125 0.1250 53.9743
vt 1.0000 0.2500 53.9743
vt 0.8750 0.2500 53.9743
vt 1.0000 0.3750 53.9743
vt 0.9583 0.4167 53.9743
vt 0.9271 0.3750 53.9743
vt 0.8750 0.3333 53.9743
vt 0.8229 0.3750 53.9743
vt 0.7917 0.4167 53.9743
vt 0.1250 0.0000 53.9743
vt 0.1875 0.1250 53.9743
vt 0.1250 0.1667 53.9743
vt 0.0625 0.1250 53.9743
vt 0.2500 0.2731 53.9743
vt 0.1250 0.2500 53.9743
vt 0.0000 0.2500 53.9743
vt 0.2500 0.3958 53.9743
vt 0.2083 0.4167 53.9743
vt 0.1771 0.3750 53.9743
vt 0.1250 0.3333 53.9743
vt 0.0625 0.3750 53.9743
vt 0.0417 0.4167 53.9743
vt 0.0000 0.3750 53.9743
vt 0.3750 0.0000 53.9743
vt 0.4375 0.1250 53.9743
vt 0.3750 0.1667 53.9743
vt 0.3125 0.1250 53.9743
vt 0.3750 0.2500 53.9743
vt 0.4583 0.4167 53.9743
vt 0.4271 0.3750 53.9743
vt 0.3750 0.3333 53.9743
vt 0.3229 0.3750 53.9743
vt 0.2917 0.4167 53.9743
# 117 texture coords

g rock
s 1
f 1/1/1 2/2/2 3/3/3 4/4/4 
f 2/2/2 5/5/5 6/6/6 3/3/3 
f 7/7/7 4/4/4 3/3/3 6/6/6 
f 5/5/8 8/8/9 9/9/10 10/10/11 
f 8/8/9 11/11/12 12/12/13 9/9/10 
f 13/13/14 10/10/11 9/9/10 12/12/13 
f 5/5/15 10/10/16 14/14/17 6/6/18 
f 10/10/16 13/13/19 15/15/20 14/14/17 
f 7/7/21 6/6/18 14/14/17 15/15/20 
f 7/7/22 15/15/23 16/16/24 17/17/25 
f 15/15/23 13/13/26 18/18/27 16/16/24 
f 19/19/28 17/17/25 16/16/24 18/18/27 
f 1/20/29 4/21/30 20/22/31 21/23/32 
f 4/21/30 7/7/33 22/24/34 20/22/31 
f 23/25/35 21/23/32 20/22/31 22/24/34 
f 7/7/36 17/17/37 24/26/38 25/27/39 
f 17/17/37 19/19/40 26/28/41 24/26/38 
f 27/29/42 25/27/39 24/26/38 26/28/41 
f 7/7/43 25/27/44 28/30/45 22/24/46 
f 25/27/44 27/29/47 29/31/48 28/30/45 
f 23/25/49 22/24/46 28/30/45 29/31/48 
f 23/25/50 29/31/51 30/32/52 31/33/53 
f 29/31/51 27/29/54 32/34/55 30/32/52 
f 33/35/56 31/33/53 30/32/52 32/34/55 
f 1/36/57 21/37/58 34/38/59 35/39/60 
f 21/37/58 23/40/61 36/41/62 34/38/59 
f 37/42/63 35/39/60 34/38/59 36/41/62 
f 23/40/64 31/43/65 38/44/66 39/45/67 
f 31/43/65 33/46/68 40/47/69 38/44/66 
f 41/48/70 39/45/67 38/44/66 40/47/69 
f 23/40/71 39/45/72 42/49/73 36/41/74 
f 39/45/72 41/48/75 43/50/76 42/49/73 
f 37/42/77 36/41/74 42/49/73 43/50/76 
f 37/42/78 43/50/79 44/51/80 45/52/81 
f 43/50/79 41/48/82 46/53/83 44/51/80 
f 47/54/84 45/52/81 44/51/80 46/53/83 
f 1/55/85 35/56/86 48/57/87 2/58/88 
f 35/56/86 37/42/89 49/59/90 48/57/87 
f 5/5/91 2/58/88 48/57/87 49/59/90 
f 37/42/92 45/52/93 50/60/94 51/61/95 
f 45/52/93 47/54/96 52/62/97 50/60/94 
f 53/63/98 51/61/95 50/60/94 52/62/97 
f 37/42/99 51/61/100 54/64/101 49/59/102 
f 51/61/100 53/63/103 55/65/104 54/64/101 
f 5/5/105 49/59/102 54/64/101 55/65/104 
f 5/5/106 55/65/107 56/66/108 8/8/109 
f 55/65/107 53/63/110 57/67/111 56/66/108 
f 11/11/112 8/8/109 56/66/108 57/67/111 
f 58/68/113 59/69/114 60/70/115 61/71/116 
f 59/69/114 62/72/117 63/73/118 60/70/115 
f 64/74/119 61/71/116 60/70/115 63/73/118 
f 62/72/120 65/75/121 66/76/122 67/77/123 
f 65/75/121 19/19/124 18/18/125 66/76/122 
f 13/13/126 67/77/123 66/76/122 18/18/125 
f 62/72/127 67/77/128 68/78/129 63/73/130 
f 67/77/128 13/13/131 69/79/132 68/78/129 
f 64/74/133 63/73/130 68/78/129 69/79/132 
f 64/74/134 69/79/135 70/80/136 71/81/137 
f 69/79/135 13/13/138 12/12/139 70/80/136 
f 11/11/140 71/81/137 70/80/136 12/12/139 
f 58/82/141 72/83/142 73/84/143 59/85/144 
f 72/83/142 74/86/145 75/87/146 73/84/143 
f 62/72/147 59/85/144 73/84/143 75/87/146 
f 74/86/148 76/88/149 77/89/150 78/90/151 
f 76/88/149 33/35/152 32/34/153 77/89/150 
f 27/29/154 78/90/151 77/89/150 32/34/153 
f 74/86/155 78/90/156 79/91/157 75/87/158 
f 78/90/156 27/29/159 80/92/160 79/91/157 
f 62/72/161 75/87/158 79/91/157 80/92/160 
f 62/72/162 80/92/163 81/93/164 65/75/165 
f 80/92/163 27/29/166 26/28/167 81/93/164 
f 19/19/168 65/75/165 81/93/164 26/28/167 
f 58/94/169 82/95/170 83/96/171 72/97/172 
f 82/95/170 84/98/173 85/99/174 83/96/171 
f 74/100/175 72/97/172 83/96/171 85/99/174 
f 84/98/176 86/101/177 87/102/178 88/103/179 
f 86/101/177 47/54/180 46/53/181 87/102/178 
f 41/48/182 88/103/179 87/102/178 46/53/181 
f 84/98/183 88/103/184 89/104/185 85/99/186 
f 88/103/184 41/48/187 90/105/188 89/104/185 
f 74/100/189 85/99/186 89/104/185 90/105/188 
f 74/100/190 90/105/191 91/106/192 76/107/193 
f 90/105/191 41/48/194 40/47/195 91/106/192 
f 33/46/196 76/107/193 91/106/192 40/47/195 
f 58/108/197 61/109/198 92/110/199 82/111/200 
f 61/109/198 64/74/201 93/112/202 92/110/199 
f 84/98/203 82/111/200 92/110/199 93/112/202 
f 64/74/204 71/81/205 94/113/206 95/114/207 
f 71/81/205 11/11/208 57/67/209 94/113/206 
f 53/63/210 95/114/207 94/113/206 57/67/209 
f 64/74/211 95/114/212 96/115/213 93/112/214 
f 95/114/212 53/63/215 97/116/216 96/115/213 
f 84/98/217 93/112/214 96/115/213 97/116/216 
f 84/98/218 97/116/219 98/117/220 86/101/221 
f 97/116/219 53/63/222 52/62/223 98/117/220 
f 47/54/224 86/101/221 98/117/220 52/62/223 
# 96 polygons

