# 3ds Max Wavefront OBJ Exporter v0.97b - (c)2007 guruware
# File Created: 25.08.2016 21:14:32

#
# object tree_leaves
#

v  -0.0855 17.4259 3.4001
v  6.8332 11.6275 2.7965
v  -0.2757 12.6853 -2.2020
v  -6.5953 14.5058 4.4389
v  0.2418 12.1829 10.3000
v  -0.1758 10.2191 3.1134
v  4.4695 15.0732 3.7875
v  0.0366 14.1614 -1.6317
v  -5.0259 16.0551 4.5353
v  0.2722 15.3312 7.2086
v  4.6798 9.9773 2.4918
v  -0.3716 9.0655 -0.9642
v  -4.8156 10.9591 4.7603
v  0.3431 10.2352 7.8761
v  4.6334 13.3643 -1.1114
v  -4.8620 14.6748 -0.5511
v  -4.6854 15.0691 8.2892
v  4.8100 11.0936 7.7289
v  1.6673 24.8583 -9.8974
v  6.2562 18.4469 -7.5453
v  1.0356 18.9251 -16.5890
v  -3.9474 17.5553 -8.3058
v  1.2082 25.0385 -4.9419
v  1.4112 15.0198 -3.1001
v  5.7506 23.3653 -7.7407
v  0.9065 23.1790 -14.7715
v  -1.8339 22.4470 -7.8515
v  1.6800 27.5013 -6.1920
v  4.8118 14.9030 -3.9773
v  1.1805 14.9222 -10.6721
v  -2.5185 16.5753 -4.8136
v  1.2924 18.3461 -1.4876
v  4.4214 19.3503 -11.9584
v  -2.9522 22.6831 -14.9996
v  -2.5920 23.7419 -3.3935
v  4.8428 23.2623 -3.4747
v  2.8835 10.7298 -7.2387
v  6.1364 7.5171 -7.7786
v  2.6545 9.0296 -11.3372
v  -0.3199 7.6213 -8.7242
v  3.0070 11.0527 -4.3290
v  3.0307 3.8945 -7.1832
v  5.6949 11.4025 -8.9380
v  2.9111 13.5334 -9.1633
v  0.9882 7.8523 -7.9308
v  2.9913 11.5951 -4.9546
v  5.2809 6.2941 -7.4776
v  3.2165 8.5555 -10.7534
v  0.4167 2.3415 -7.4784
v  2.7961 7.4371 -4.3610
v  5.3469 10.9634 -12.1772
v  0.1930 8.3874 -11.4296
v  0.4004 7.4055 -7.5311
v  5.4095 8.9878 -7.5293
# 54 vertices

vn 0.5814 0.5469 -0.6024
vn 0.5814 0.5469 -0.6024
vn 0.5814 0.5469 -0.6024
vn 0.9098 0.3671 -0.1938
vn 0.9098 0.3671 -0.1938
vn 0.9098 0.3671 -0.1938
vn 0.3218 0.8144 -0.4828
vn 0.3218 0.8144 -0.4828
vn 0.3218 0.8144 -0.4828
vn 0.1800 0.1943 -0.9643
vn 0.1800 0.1943 -0.9643
vn 0.1800 0.1943 -0.9643
vn -0.4656 0.5826 -0.6662
vn -0.4656 0.5826 -0.6662
vn -0.4656 0.5826 -0.6662
vn -0.1808 0.2333 -0.9554
vn -0.1808 0.2333 -0.9554
vn -0.1808 0.2333 -0.9554
vn 0.0761 0.9030 -0.4228
vn 0.0761 0.9030 -0.4228
vn 0.0761 0.9030 -0.4228
vn -0.8477 0.4697 -0.2466
vn -0.8477 0.4697 -0.2466
vn -0.8477 0.4697 -0.2466
vn -0.1933 0.7014 0.6861
vn -0.1933 0.7014 0.6861
vn -0.1933 0.7014 0.6861
vn -0.8483 0.4512 0.2772
vn -0.8483 0.4512 0.2772
vn -0.8483 0.4512 0.2772
vn 0.0073 0.9102 0.4141
vn 0.0073 0.9102 0.4141
vn 0.0073 0.9102 0.4141
vn 0.1535 0.4862 0.8603
vn 0.1535 0.4862 0.8603
vn 0.1535 0.4862 0.8603
vn 0.5528 0.6265 0.5495
vn 0.5528 0.6265 0.5495
vn 0.5528 0.6265 0.5495
vn 0.5973 0.3927 0.6993
vn 0.5973 0.3927 0.6993
vn 0.5973 0.3927 0.6993
vn 0.6275 0.4076 0.6634
vn 0.6275 0.4076 0.6634
vn 0.6275 0.4076 0.6634
vn 0.8843 0.2614 0.3868
vn 0.8843 0.2614 0.3868
vn 0.8843 0.2614 0.3868
vn -0.0226 -0.8971 0.4413
vn -0.0226 -0.8971 0.4413
vn -0.0226 -0.8971 0.4413
vn 0.2739 -0.1898 -0.9429
vn 0.2739 -0.1898 -0.9429
vn 0.2739 -0.1898 -0.9429
vn 0.6260 -0.4043 -0.6668
vn 0.6260 -0.4043 -0.6668
vn 0.6260 -0.4043 -0.6668
vn 0.6563 -0.3909 -0.6454
vn 0.6563 -0.3909 -0.6454
vn 0.6563 -0.3909 -0.6454
vn -0.0965 -0.8918 0.4420
vn -0.0965 -0.8918 0.4420
vn -0.0965 -0.8918 0.4420
vn -0.9136 -0.2623 -0.3108
vn -0.9136 -0.2623 -0.3108
vn -0.9136 -0.2623 -0.3108
vn -0.8435 -0.3449 -0.4117
vn -0.8435 -0.3449 -0.4117
vn -0.8435 -0.3449 -0.4117
vn -0.4685 -0.1644 -0.8680
vn -0.4685 -0.1644 -0.8680
vn -0.4685 -0.1644 -0.8680
vn -0.2730 -0.9614 0.0333
vn -0.2730 -0.9614 0.0333
vn -0.2730 -0.9614 0.0333
vn -0.7094 -0.4238 0.5631
vn -0.7094 -0.4238 0.5631
vn -0.7094 -0.4238 0.5631
vn -0.5723 -0.3559 0.7388
vn -0.5723 -0.3559 0.7388
vn -0.5723 -0.3559 0.7388
vn -0.8664 -0.2096 0.4533
vn -0.8664 -0.2096 0.4533
vn -0.8664 -0.2096 0.4533
vn -0.0904 -0.9958 0.0150
vn -0.0904 -0.9958 0.0150
vn -0.0904 -0.9958 0.0150
vn 0.7935 -0.5765 0.1948
vn 0.7935 -0.5765 0.1948
vn 0.7935 -0.5765 0.1948
vn 0.3293 -0.8881 0.3208
vn 0.3293 -0.8881 0.3208
vn 0.3293 -0.8881 0.3208
vn 0.2297 -0.5631 0.7938
vn 0.2297 -0.5631 0.7938
vn 0.2297 -0.5631 0.7938
vn 0.6630 0.5962 -0.4527
vn 0.6630 0.5962 -0.4527
vn 0.6630 0.5962 -0.4527
vn 0.9368 0.0437 -0.3471
vn 0.9368 0.0437 -0.3471
vn 0.9368 0.0437 -0.3471
vn 0.8244 0.1787 -0.5370
vn 0.8244 0.1787 -0.5370
vn 0.8244 0.1787 -0.5370
vn 0.8052 0.1542 -0.5727
vn 0.8052 0.1542 -0.5727
vn 0.8052 0.1542 -0.5727
vn -0.8180 0.5382 -0.2028
vn -0.8180 0.5382 -0.2028
vn -0.8180 0.5382 -0.2028
vn 0.0044 0.2392 -0.9710
vn 0.0044 0.2392 -0.9710
vn 0.0044 0.2392 -0.9710
vn -0.2373 0.9673 0.0900
vn -0.2373 0.9673 0.0900
vn -0.2373 0.9673 0.0900
vn -0.9645 0.2155 0.1528
vn -0.9645 0.2155 0.1528
vn -0.9645 0.2155 0.1528
vn -0.7918 0.3851 -0.4740
vn -0.7918 0.3851 -0.4740
vn -0.7918 0.3851 -0.4740
vn -0.9362 0.2313 -0.2648
vn -0.9362 0.2313 -0.2648
vn -0.9362 0.2313 -0.2648
vn -0.8622 0.3842 -0.3301
vn -0.8622 0.3842 -0.3301
vn -0.8622 0.3842 -0.3301
vn 0.2519 0.2478 0.9355
vn 0.2519 0.2478 0.9355
vn 0.2519 0.2478 0.9355
vn 0.6560 0.4734 -0.5878
vn 0.6560 0.4734 -0.5878
vn 0.6560 0.4734 -0.5878
vn -0.1445 0.2915 0.9456
vn -0.1445 0.2915 0.9456
vn -0.1445 0.2915 0.9456
vn 0.8842 0.4254 0.1930
vn 0.8842 0.4254 0.1930
vn 0.8842 0.4254 0.1930
vn 0.9788 0.0585 0.1964
vn 0.9788 0.0585 0.1964
vn 0.9788 0.0585 0.1964
vn -0.0572 -0.9981 0.0239
vn -0.0572 -0.9981 0.0239
vn -0.0572 -0.9981 0.0239
vn 0.7890 -0.3895 -0.4751
vn 0.7890 -0.3895 -0.4751
vn 0.7890 -0.3895 -0.4751
vn 0.8204 -0.3920 -0.4163
vn 0.8204 -0.3920 -0.4163
vn 0.8204 -0.3920 -0.4163
vn 0.7774 -0.4342 -0.4551
vn 0.7774 -0.4342 -0.4551
vn 0.7774 -0.4342 -0.4551
vn -0.6038 -0.7964 0.0349
vn -0.6038 -0.7964 0.0349
vn -0.6038 -0.7964 0.0349
vn 0.7363 -0.4541 -0.5016
vn 0.7363 -0.4541 -0.5016
vn 0.7363 -0.4541 -0.5016
vn -0.8710 -0.3573 -0.3371
vn -0.8710 -0.3573 -0.3371
vn -0.8710 -0.3573 -0.3371
vn -0.8299 -0.3711 -0.4166
vn -0.8299 -0.3711 -0.4166
vn -0.8299 -0.3711 -0.4166
vn -0.5489 -0.2347 0.8023
vn -0.5489 -0.2347 0.8023
vn -0.5489 -0.2347 0.8023
vn 0.2307 0.2789 0.9322
vn 0.2307 0.2789 0.9322
vn 0.2307 0.2789 0.9322
vn -0.6381 -0.0909 0.7646
vn -0.6381 -0.0909 0.7646
vn -0.6381 -0.0909 0.7646
vn -0.9405 -0.0437 0.3370
vn -0.9405 -0.0437 0.3370
vn -0.9405 -0.0437 0.3370
vn 0.2428 -0.2568 0.9355
vn 0.2428 -0.2568 0.9355
vn 0.2428 -0.2568 0.9355
vn 0.9431 -0.0134 0.3323
vn 0.9431 -0.0134 0.3323
vn 0.9431 -0.0134 0.3323
vn 0.5700 -0.0296 0.8211
vn 0.5700 -0.0296 0.8211
vn 0.5700 -0.0296 0.8211
vn -0.1550 0.2808 0.9472
vn -0.1550 0.2808 0.9472
vn -0.1550 0.2808 0.9472
vn 0.4035 0.3348 0.8515
vn 0.4035 0.3348 0.8515
vn 0.4035 0.3348 0.8515
vn 0.9931 0.0418 -0.1092
vn 0.9931 0.0418 -0.1092
vn 0.9931 0.0418 -0.1092
vn 0.8064 0.5526 -0.2106
vn 0.8064 0.5526 -0.2106
vn 0.8064 0.5526 -0.2106
vn -0.5770 0.2353 -0.7821
vn -0.5770 0.2353 -0.7821
vn -0.5770 0.2353 -0.7821
vn -0.8182 0.2153 0.5331
vn -0.8182 0.2153 0.5331
vn -0.8182 0.2153 0.5331
vn -0.0924 0.2695 -0.9586
vn -0.0924 0.2695 -0.9586
vn -0.0924 0.2695 -0.9586
vn -0.9455 0.2035 0.2541
vn -0.9455 0.2035 0.2541
vn -0.9455 0.2035 0.2541
vn -0.4769 0.8193 0.3183
vn -0.4769 0.8193 0.3183
vn -0.4769 0.8193 0.3183
vn -0.9171 0.3505 -0.1901
vn -0.9171 0.3505 -0.1901
vn -0.9171 0.3505 -0.1901
vn -0.5517 0.6554 0.5158
vn -0.5517 0.6554 0.5158
vn -0.5517 0.6554 0.5158
vn -0.8393 0.4065 -0.3609
vn -0.8393 0.4065 -0.3609
vn -0.8393 0.4065 -0.3609
vn -0.9282 0.1959 0.3163
vn -0.9282 0.1959 0.3163
vn -0.9282 0.1959 0.3163
vn -0.5848 0.6894 -0.4274
vn -0.5848 0.6894 -0.4274
vn -0.5848 0.6894 -0.4274
vn 0.9022 0.2484 0.3525
vn 0.9022 0.2484 0.3525
vn 0.9022 0.2484 0.3525
vn 0.8436 0.1223 0.5228
vn 0.8436 0.1223 0.5228
vn 0.8436 0.1223 0.5228
vn 0.7881 0.1507 0.5968
vn 0.7881 0.1507 0.5968
vn 0.7881 0.1507 0.5968
vn 0.5733 -0.3412 -0.7450
vn 0.5733 -0.3412 -0.7450
vn 0.5733 -0.3412 -0.7450
vn 0.2849 -0.4277 -0.8578
vn 0.2849 -0.4277 -0.8578
vn 0.2849 -0.4277 -0.8578
vn 0.4045 -0.4612 -0.7897
vn 0.4045 -0.4612 -0.7897
vn 0.4045 -0.4612 -0.7897
vn 0.7164 -0.3542 -0.6011
vn 0.7164 -0.3542 -0.6011
vn 0.7164 -0.3542 -0.6011
vn 0.4944 -0.3599 -0.7912
vn 0.4944 -0.3599 -0.7912
vn 0.4944 -0.3599 -0.7912
vn -0.9697 -0.1027 -0.2216
vn -0.9697 -0.1027 -0.2216
vn -0.9697 -0.1027 -0.2216
vn 0.2528 -0.3367 -0.9070
vn 0.2528 -0.3367 -0.9070
vn 0.2528 -0.3367 -0.9070
vn 0.2525 -0.4482 -0.8576
vn 0.2525 -0.4482 -0.8576
vn 0.2525 -0.4482 -0.8576
vn 0.3220 -0.3856 0.8647
vn 0.3220 -0.3856 0.8647
vn 0.3220 -0.3856 0.8647
vn -0.8178 0.0227 0.5750
vn -0.8178 0.0227 0.5750
vn -0.8178 0.0227 0.5750
vn -0.8179 0.0020 0.5754
vn -0.8179 0.0020 0.5754
vn -0.8179 0.0020 0.5754
vn -0.8716 0.0014 0.4903
vn -0.8716 0.0014 0.4903
vn -0.8716 0.0014 0.4903
vn 0.6712 -0.2895 0.6824
vn 0.6712 -0.2895 0.6824
vn 0.6712 -0.2895 0.6824
vn 0.3502 0.0014 0.9367
vn 0.3502 0.0014 0.9367
vn 0.3502 0.0014 0.9367
vn 0.7987 -0.0138 0.6016
vn 0.7987 -0.0138 0.6016
vn 0.7987 -0.0138 0.6016
vn 0.8042 -0.0282 0.5937
vn 0.8042 -0.0282 0.5937
vn 0.8042 -0.0282 0.5937
# 288 vertex normals

vt 0.3750 1.0000 102.1500
vt 0.5000 0.5000 102.1500
vt 0.7500 0.5000 102.1500
vt 1.0000 0.5000 102.1500
vt 0.2500 0.5000 102.1500
vt 0.3750 0.0000 102.1500
vt 0.5000 0.7500 102.1500
vt 0.7500 0.7500 102.1500
vt 1.0000 0.7500 102.1500
vt 0.2500 0.7500 102.1500
vt 0.5000 0.2500 102.1500
vt 0.7500 0.2500 102.1500
vt 1.0000 0.2500 102.1500
vt 0.2500 0.2500 102.1500
vt 0.6250 0.5000 102.1500
vt 0.8750 0.5000 102.1500
vt 0.1250 0.5000 102.1500
vt 0.3750 0.5000 102.1500
vt 0.6250 1.0000 102.1500
vt 0.8750 1.0000 102.1500
vt 0.1250 1.0000 102.1500
vt 0.0000 0.7500 102.1500
vt 0.0000 0.7500 102.1500
vt 0.0000 0.5000 102.1500
vt 0.0000 0.7500 102.1500
vt 0.6250 0.0000 102.1500
vt 0.8750 0.0000 102.1500
vt 0.1250 0.0000 102.1500
vt 0.0000 0.2500 102.1500
vt 0.0000 0.2500 102.1500
vt 0.0000 0.2500 102.1500
vt 0.0000 0.5000 102.1500
vt 0.3750 1.0000 102.1500
vt 0.5000 0.5000 102.1500
vt 0.7500 0.5000 102.1500
vt 1.0000 0.5000 102.1500
vt 0.2500 0.5000 102.1500
vt 0.3750 0.0000 102.1500
vt 0.5000 0.7500 102.1500
vt 0.7500 0.7500 102.1500
vt 1.0000 0.7500 102.1500
vt 0.2500 0.7500 102.1500
vt 0.5000 0.2500 102.1500
vt 0.7500 0.2500 102.1500
vt 1.0000 0.2500 102.1500
vt 0.2500 0.2500 102.1500
vt 0.6250 0.5000 102.1500
vt 0.8750 0.5000 102.1500
vt 0.1250 0.5000 102.1500
vt 0.3750 0.5000 102.1500
vt 0.6250 1.0000 102.1500
vt 0.8750 1.0000 102.1500
vt 0.1250 1.0000 102.1500
vt 0.0000 0.7500 102.1500
vt 0.0000 0.7500 102.1500
vt 0.0000 0.5000 102.1500
vt 0.0000 0.7500 102.1500
vt 0.6250 0.0000 102.1500
vt 0.8750 0.0000 102.1500
vt 0.1250 0.0000 102.1500
vt 0.0000 0.2500 102.1500
vt 0.0000 0.2500 102.1500
vt 0.0000 0.2500 102.1500
vt 0.0000 0.5000 102.1500
vt 0.3750 1.0000 102.1500
vt 0.5000 0.5000 102.1500
vt 0.7500 0.5000 102.1500
vt 1.0000 0.5000 102.1500
vt 0.2500 0.5000 102.1500
vt 0.3750 0.0000 102.1500
vt 0.5000 0.7500 102.1500
vt 0.7500 0.7500 102.1500
vt 1.0000 0.7500 102.1500
vt 0.2500 0.7500 102.1500
vt 0.5000 0.2500 102.1500
vt 0.7500 0.2500 102.1500
vt 1.0000 0.2500 102.1500
vt 0.2500 0.2500 102.1500
vt 0.6250 0.5000 102.1500
vt 0.8750 0.5000 102.1500
vt 0.1250 0.5000 102.1500
vt 0.3750 0.5000 102.1500
vt 0.6250 1.0000 102.1500
vt 0.8750 1.0000 102.1500
vt 0.1250 1.0000 102.1500
vt 0.0000 0.7500 102.1500
vt 0.0000 0.7500 102.1500
vt 0.0000 0.5000 102.1500
vt 0.0000 0.7500 102.1500
vt 0.6250 0.0000 102.1500
vt 0.8750 0.0000 102.1500
vt 0.1250 0.0000 102.1500
vt 0.0000 0.2500 102.1500
vt 0.0000 0.2500 102.1500
vt 0.0000 0.2500 102.1500
vt 0.0000 0.5000 102.1500
# 96 texture coords

g tree_leaves
s off
f 1/19/1 7/7/2 8/8/3 
f 7/7/4 2/2/5 15/15/6 
f 7/7/7 15/15/8 8/8/9 
f 8/8/10 15/15/11 3/3/12 
f 1/20/13 8/8/14 9/9/15 
f 8/8/16 3/3/17 16/16/18 
f 8/8/19 16/16/20 9/9/21 
f 9/9/22 16/16/23 4/4/24 
f 1/21/25 9/22/26 10/10/27 
f 9/23/28 4/24/29 17/17/30 
f 9/25/31 17/17/32 10/10/33 
f 10/10/34 17/17/35 5/5/36 
f 1/1/37 10/10/38 7/7/39 
f 10/10/40 5/5/41 18/18/42 
f 10/10/43 18/18/44 7/7/45 
f 7/7/46 18/18/47 2/2/48 
f 6/26/49 12/12/50 11/11/51 
f 12/12/52 3/3/53 15/15/54 
f 12/12/55 15/15/56 11/11/57 
f 11/11/58 15/15/59 2/2/60 
f 6/27/61 13/13/62 12/12/63 
f 13/13/64 4/4/65 16/16/66 
f 13/13/67 16/16/68 12/12/69 
f 12/12/70 16/16/71 3/3/72 
f 6/28/73 14/14/74 13/29/75 
f 14/14/76 5/5/77 17/17/78 
f 14/14/79 17/17/80 13/30/81 
f 13/31/82 17/17/83 4/32/84 
f 6/6/85 11/11/86 14/14/87 
f 11/11/88 2/2/89 18/18/90 
f 11/11/91 18/18/92 14/14/93 
f 14/14/94 18/18/95 5/5/96 
f 19/51/97 25/39/98 26/40/99 
f 25/39/100 20/34/101 33/47/102 
f 25/39/103 33/47/104 26/40/105 
f 26/40/106 33/47/107 21/35/108 
f 19/52/109 26/40/110 27/41/111 
f 26/40/112 21/35/113 34/48/114 
f 26/40/115 34/48/116 27/41/117 
f 27/41/118 34/48/119 22/36/120 
f 19/53/121 27/54/122 28/42/123 
f 27/55/124 22/56/125 35/49/126 
f 27/57/127 35/49/128 28/42/129 
f 28/42/130 35/49/131 23/37/132 
f 19/33/133 28/42/134 25/39/135 
f 28/42/136 23/37/137 36/50/138 
f 28/42/139 36/50/140 25/39/141 
f 25/39/142 36/50/143 20/34/144 
f 24/58/145 30/44/146 29/43/147 
f 30/44/148 21/35/149 33/47/150 
f 30/44/151 33/47/152 29/43/153 
f 29/43/154 33/47/155 20/34/156 
f 24/59/157 31/45/158 30/44/159 
f 31/45/160 22/36/161 34/48/162 
f 31/45/163 34/48/164 30/44/165 
f 30/44/166 34/48/167 21/35/168 
f 24/60/169 32/46/170 31/61/171 
f 32/46/172 23/37/173 35/49/174 
f 32/46/175 35/49/176 31/62/177 
f 31/63/178 35/49/179 22/64/180 
f 24/38/181 29/43/182 32/46/183 
f 29/43/184 20/34/185 36/50/186 
f 29/43/187 36/50/188 32/46/189 
f 32/46/190 36/50/191 23/37/192 
f 37/83/193 43/71/194 44/72/195 
f 43/71/196 38/66/197 51/79/198 
f 43/71/199 51/79/200 44/72/201 
f 44/72/202 51/79/203 39/67/204 
f 37/84/205 44/72/206 45/73/207 
f 44/72/208 39/67/209 52/80/210 
f 44/72/211 52/80/212 45/73/213 
f 45/73/214 52/80/215 40/68/216 
f 37/85/217 45/86/218 46/74/219 
f 45/87/220 40/88/221 53/81/222 
f 45/89/223 53/81/224 46/74/225 
f 46/74/226 53/81/227 41/69/228 
f 37/65/229 46/74/230 43/71/231 
f 46/74/232 41/69/233 54/82/234 
f 46/74/235 54/82/236 43/71/237 
f 43/71/238 54/82/239 38/66/240 
f 42/90/241 48/76/242 47/75/243 
f 48/76/244 39/67/245 51/79/246 
f 48/76/247 51/79/248 47/75/249 
f 47/75/250 51/79/251 38/66/252 
f 42/91/253 49/77/254 48/76/255 
f 49/77/256 40/68/257 52/80/258 
f 49/77/259 52/80/260 48/76/261 
f 48/76/262 52/80/263 39/67/264 
f 42/92/265 50/78/266 49/93/267 
f 50/78/268 41/69/269 53/81/270 
f 50/78/271 53/81/272 49/94/273 
f 49/95/274 53/81/275 40/96/276 
f 42/70/277 47/75/278 50/78/279 
f 47/75/280 38/66/281 54/82/282 
f 47/75/283 54/82/284 50/78/285 
f 50/78/286 54/82/287 41/69/288 
# 0 polygons - 96 triangles

