# 3ds Max Wavefront OBJ Exporter v0.97b - (c)2007 guruware
# File Created: 25.08.2016 21:13:29

#
# object tree_leaves_outline
#

v  -0.0526 17.6007 3.3732
v  7.1559 11.6004 2.7623
v  -0.3033 12.6779 -2.5066
v  -6.9226 14.5202 4.4520
v  0.2311 12.1642 10.6041
v  -0.2145 10.0499 3.1916
v  4.7285 15.1806 3.8163
v  0.0650 14.2544 -1.8904
v  -5.2157 16.1989 4.5468
v  0.3762 15.4413 7.4272
v  4.8627 9.8332 2.4450
v  -0.4158 8.9150 -1.1184
v  -5.0705 10.8530 4.8187
v  0.2896 10.0896 8.0413
v  4.8440 13.4103 -1.3324
v  -5.0591 14.7475 -0.7609
v  -4.8542 15.1409 8.5203
v  5.0407 11.0373 7.9236
v  1.6376 24.9895 -10.1001
v  6.5777 18.4170 -7.5819
v  1.0513 18.8670 -16.8775
v  -4.1032 17.4314 -8.4683
v  1.2268 25.0875 -4.6485
v  1.3312 14.8901 -2.9066
v  6.0574 23.4197 -7.7963
v  0.9836 23.3008 -14.9807
v  -2.1316 22.5153 -7.9043
v  1.6762 27.6772 -6.1701
v  5.0235 14.7829 -3.8708
v  1.1608 14.7733 -10.8351
v  -2.7950 16.4969 -4.7195
v  1.2770 18.3341 -1.1826
v  4.7064 19.3318 -12.1075
v  -3.1810 22.7689 -15.1611
v  -2.8144 23.8169 -3.2095
v  5.0362 23.3142 -3.2443
v  2.6076 10.8200 -7.1827
v  6.4438 7.4776 -7.6948
v  2.6750 9.0030 -11.6391
v  -0.6180 7.6851 -8.6581
v  3.0011 11.1182 -4.0449
v  3.2876 3.7853 -7.1599
v  5.9820 11.4757 -8.8603
v  2.8509 13.7063 -9.1413
v  0.7090 7.9440 -7.9038
v  2.9453 11.7509 -4.8178
v  5.5851 6.2273 -7.4806
v  3.3308 8.4817 -11.0101
v  0.3278 2.1718 -7.4741
v  2.7932 7.4208 -4.0564
v  5.4861 11.0030 -12.4458
v  -0.0243 8.3928 -11.6590
v  0.1173 7.4411 -7.3886
v  5.6705 9.0021 -7.3450
# 54 vertices

vn -0.5809 -0.5528 0.5976
vn -0.5809 -0.5528 0.5976
vn -0.5809 -0.5528 0.5976
vn -0.9097 -0.3647 0.1985
vn -0.9097 -0.3647 0.1985
vn -0.9097 -0.3647 0.1985
vn -0.3281 -0.8143 0.4789
vn -0.3281 -0.8143 0.4789
vn -0.3281 -0.8143 0.4789
vn -0.1847 -0.1940 0.9635
vn -0.1847 -0.1940 0.9635
vn -0.1847 -0.1940 0.9635
vn 0.4608 -0.5914 0.6618
vn 0.4608 -0.5914 0.6618
vn 0.4608 -0.5914 0.6618
vn 0.1832 -0.2379 0.9539
vn 0.1832 -0.2379 0.9539
vn 0.1832 -0.2379 0.9539
vn -0.0609 -0.9025 0.4264
vn -0.0609 -0.9025 0.4264
vn -0.0609 -0.9025 0.4264
vn 0.8474 -0.4704 0.2464
vn 0.8474 -0.4704 0.2464
vn 0.8474 -0.4704 0.2464
vn 0.1946 -0.7108 -0.6760
vn 0.1946 -0.7108 -0.6760
vn 0.1946 -0.7108 -0.6760
vn 0.8463 -0.4527 -0.2808
vn 0.8463 -0.4527 -0.2808
vn 0.8463 -0.4527 -0.2808
vn 0.0030 -0.9077 -0.4195
vn 0.0030 -0.9077 -0.4195
vn 0.0030 -0.9077 -0.4195
vn -0.1429 -0.4802 -0.8654
vn -0.1429 -0.4802 -0.8654
vn -0.1429 -0.4802 -0.8654
vn -0.5499 -0.6397 -0.5370
vn -0.5499 -0.6397 -0.5370
vn -0.5499 -0.6397 -0.5370
vn -0.5918 -0.3825 -0.7096
vn -0.5918 -0.3825 -0.7096
vn -0.5918 -0.3825 -0.7096
vn -0.6335 -0.4030 -0.6605
vn -0.6335 -0.4030 -0.6605
vn -0.6335 -0.4030 -0.6605
vn -0.8858 -0.2567 -0.3866
vn -0.8858 -0.2567 -0.3866
vn -0.8858 -0.2567 -0.3866
vn 0.0067 0.9095 -0.4157
vn 0.0067 0.9095 -0.4157
vn 0.0067 0.9095 -0.4157
vn -0.2836 0.2038 0.9370
vn -0.2836 0.2038 0.9370
vn -0.2836 0.2038 0.9370
vn -0.6190 0.4071 0.6716
vn -0.6190 0.4071 0.6716
vn -0.6190 0.4071 0.6716
vn -0.6569 0.3907 0.6449
vn -0.6569 0.3907 0.6449
vn -0.6569 0.3907 0.6449
vn 0.1274 0.9001 -0.4167
vn 0.1274 0.9001 -0.4167
vn 0.1274 0.9001 -0.4167
vn 0.9088 0.2649 0.3225
vn 0.9088 0.2649 0.3225
vn 0.9088 0.2649 0.3225
vn 0.8404 0.3443 0.4185
vn 0.8404 0.3443 0.4185
vn 0.8404 0.3443 0.4185
vn 0.4807 0.1750 0.8592
vn 0.4807 0.1750 0.8592
vn 0.4807 0.1750 0.8592
vn 0.2808 0.9589 -0.0408
vn 0.2808 0.9589 -0.0408
vn 0.2808 0.9589 -0.0408
vn 0.7067 0.4175 -0.5712
vn 0.7067 0.4175 -0.5712
vn 0.7067 0.4175 -0.5712
vn 0.5719 0.3530 -0.7405
vn 0.5719 0.3530 -0.7405
vn 0.5719 0.3530 -0.7405
vn 0.8620 0.2070 -0.4628
vn 0.8620 0.2070 -0.4628
vn 0.8620 0.2070 -0.4628
vn 0.0759 0.9969 -0.0215
vn 0.0759 0.9969 -0.0215
vn 0.0759 0.9969 -0.0215
vn -0.7953 0.5740 -0.1948
vn -0.7953 0.5740 -0.1948
vn -0.7953 0.5740 -0.1948
vn -0.3369 0.8831 -0.3265
vn -0.3369 0.8831 -0.3265
vn -0.3369 0.8831 -0.3265
vn -0.2301 0.5622 -0.7944
vn -0.2301 0.5622 -0.7944
vn -0.2301 0.5622 -0.7944
vn -0.6541 -0.6097 0.4476
vn -0.6541 -0.6097 0.4476
vn -0.6541 -0.6097 0.4476
vn -0.9374 -0.0438 0.3455
vn -0.9374 -0.0438 0.3455
vn -0.9374 -0.0438 0.3455
vn -0.8187 -0.1853 0.5436
vn -0.8187 -0.1853 0.5436
vn -0.8187 -0.1853 0.5436
vn -0.7923 -0.1522 0.5909
vn -0.7923 -0.1522 0.5909
vn -0.7923 -0.1522 0.5909
vn 0.8076 -0.5446 0.2261
vn 0.8076 -0.5446 0.2261
vn 0.8076 -0.5446 0.2261
vn 0.0118 -0.2393 0.9709
vn 0.0118 -0.2393 0.9709
vn 0.0118 -0.2393 0.9709
vn 0.2345 -0.9679 -0.0903
vn 0.2345 -0.9679 -0.0903
vn 0.2345 -0.9679 -0.0903
vn 0.9708 -0.1930 -0.1424
vn 0.9708 -0.1930 -0.1424
vn 0.9708 -0.1930 -0.1424
vn 0.7858 -0.4021 0.4699
vn 0.7858 -0.4021 0.4699
vn 0.7858 -0.4021 0.4699
vn 0.9496 -0.2124 0.2307
vn 0.9496 -0.2124 0.2307
vn 0.9496 -0.2124 0.2307
vn 0.8620 -0.4012 0.3097
vn 0.8620 -0.4012 0.3097
vn 0.8620 -0.4012 0.3097
vn -0.1823 -0.3001 -0.9363
vn -0.1823 -0.3001 -0.9363
vn -0.1823 -0.3001 -0.9363
vn -0.6494 -0.4872 0.5839
vn -0.6494 -0.4872 0.5839
vn -0.6494 -0.4872 0.5839
vn 0.0889 -0.3269 -0.9409
vn 0.0889 -0.3269 -0.9409
vn 0.0889 -0.3269 -0.9409
vn -0.8756 -0.4394 -0.2006
vn -0.8756 -0.4394 -0.2006
vn -0.8756 -0.4394 -0.2006
vn -0.9767 -0.0596 -0.2064
vn -0.9767 -0.0596 -0.2064
vn -0.9767 -0.0596 -0.2064
vn 0.0466 0.9986 -0.0265
vn 0.0466 0.9986 -0.0265
vn 0.0466 0.9986 -0.0265
vn -0.7761 0.4021 0.4857
vn -0.7761 0.4021 0.4857
vn -0.7761 0.4021 0.4857
vn -0.8123 0.4064 0.4185
vn -0.8123 0.4064 0.4185
vn -0.8123 0.4064 0.4185
vn -0.7728 0.4442 0.4533
vn -0.7728 0.4442 0.4533
vn -0.7728 0.4442 0.4533
vn 0.5970 0.8016 -0.0324
vn 0.5970 0.8016 -0.0324
vn 0.5970 0.8016 -0.0324
vn -0.8141 0.3879 0.4322
vn -0.8141 0.3879 0.4322
vn -0.8141 0.3879 0.4322
vn 0.8664 0.3603 0.3456
vn 0.8664 0.3603 0.3456
vn 0.8664 0.3603 0.3456
vn 0.8252 0.3728 0.4242
vn 0.8252 0.3728 0.4242
vn 0.8252 0.3728 0.4242
vn 0.5494 0.2359 -0.8015
vn 0.5494 0.2359 -0.8015
vn 0.5494 0.2359 -0.8015
vn -0.1962 -0.2789 -0.9401
vn -0.1962 -0.2789 -0.9401
vn -0.1962 -0.2789 -0.9401
vn 0.6369 0.0919 -0.7655
vn 0.6369 0.0919 -0.7655
vn 0.6369 0.0919 -0.7655
vn 0.9550 0.0364 -0.2945
vn 0.9550 0.0364 -0.2945
vn 0.9550 0.0364 -0.2945
vn -0.2469 0.2667 -0.9316
vn -0.2469 0.2667 -0.9316
vn -0.2469 0.2667 -0.9316
vn -0.9400 0.0152 -0.3407
vn -0.9400 0.0152 -0.3407
vn -0.9400 0.0152 -0.3407
vn -0.5703 0.0352 -0.8207
vn -0.5703 0.0352 -0.8207
vn -0.5703 0.0352 -0.8207
vn 0.1329 -0.2807 -0.9506
vn 0.1329 -0.2807 -0.9506
vn 0.1329 -0.2807 -0.9506
vn -0.3501 -0.3275 -0.8776
vn -0.3501 -0.3275 -0.8776
vn -0.3501 -0.3275 -0.8776
vn -0.9899 -0.0385 0.1363
vn -0.9899 -0.0385 0.1363
vn -0.9899 -0.0385 0.1363
vn -0.7849 -0.5744 0.2324
vn -0.7849 -0.5744 0.2324
vn -0.7849 -0.5744 0.2324
vn 0.5727 -0.2505 0.7806
vn 0.5727 -0.2505 0.7806
vn 0.5727 -0.2505 0.7806
vn 0.8433 -0.2285 -0.4865
vn 0.8433 -0.2285 -0.4865
vn 0.8433 -0.2285 -0.4865
vn 0.1158 -0.2929 0.9491
vn 0.1158 -0.2929 0.9491
vn 0.1158 -0.2929 0.9491
vn 0.9516 -0.2168 -0.2179
vn 0.9516 -0.2168 -0.2179
vn 0.9516 -0.2168 -0.2179
vn 0.4662 -0.8456 -0.2601
vn 0.4662 -0.8456 -0.2601
vn 0.4662 -0.8456 -0.2601
vn 0.9314 -0.3462 0.1126
vn 0.9314 -0.3462 0.1126
vn 0.9314 -0.3462 0.1126
vn 0.5530 -0.6540 -0.5162
vn 0.5530 -0.6540 -0.5162
vn 0.5530 -0.6540 -0.5162
vn 0.8783 -0.3996 0.2625
vn 0.8783 -0.3996 0.2625
vn 0.8783 -0.3996 0.2625
vn 0.9151 -0.2023 -0.3488
vn 0.9151 -0.2023 -0.3488
vn 0.9151 -0.2023 -0.3488
vn 0.5041 -0.7430 0.4403
vn 0.5041 -0.7430 0.4403
vn 0.5041 -0.7430 0.4403
vn -0.8912 -0.2886 -0.3501
vn -0.8912 -0.2886 -0.3501
vn -0.8912 -0.2886 -0.3501
vn -0.8190 -0.1410 -0.5561
vn -0.8190 -0.1410 -0.5561
vn -0.8190 -0.1410 -0.5561
vn -0.8105 -0.1456 -0.5674
vn -0.8105 -0.1456 -0.5674
vn -0.8105 -0.1456 -0.5674
vn -0.5825 0.3497 0.7338
vn -0.5825 0.3497 0.7338
vn -0.5825 0.3497 0.7338
vn -0.2806 0.4131 0.8664
vn -0.2806 0.4131 0.8664
vn -0.2806 0.4131 0.8664
vn -0.4445 0.4568 0.7705
vn -0.4445 0.4568 0.7705
vn -0.4445 0.4568 0.7705
vn -0.7512 0.3332 0.5699
vn -0.7512 0.3332 0.5699
vn -0.7512 0.3332 0.5699
vn -0.4746 0.3780 0.7949
vn -0.4746 0.3780 0.7949
vn -0.4746 0.3780 0.7949
vn 0.9671 0.1170 0.2260
vn 0.9671 0.1170 0.2260
vn 0.9671 0.1170 0.2260
vn -0.2071 0.3482 0.9142
vn -0.2071 0.3482 0.9142
vn -0.2071 0.3482 0.9142
vn -0.2021 0.4636 0.8627
vn -0.2021 0.4636 0.8627
vn -0.2021 0.4636 0.8627
vn -0.3096 0.4015 -0.8619
vn -0.3096 0.4015 -0.8619
vn -0.3096 0.4015 -0.8619
vn 0.8006 -0.0231 -0.5988
vn 0.8006 -0.0231 -0.5988
vn 0.8006 -0.0231 -0.5988
vn 0.8008 0.0228 -0.5985
vn 0.8008 0.0228 -0.5985
vn 0.8008 0.0228 -0.5985
vn 0.8832 0.0233 -0.4684
vn 0.8832 0.0233 -0.4684
vn 0.8832 0.0233 -0.4684
vn -0.6713 0.2872 -0.6833
vn -0.6713 0.2872 -0.6833
vn -0.6713 0.2872 -0.6833
vn -0.3390 0.0321 -0.9402
vn -0.3390 0.0321 -0.9402
vn -0.3390 0.0321 -0.9402
vn -0.7872 0.0304 -0.6159
vn -0.7872 0.0304 -0.6159
vn -0.7872 0.0304 -0.6159
vn -0.7851 0.0248 -0.6189
vn -0.7851 0.0248 -0.6189
vn -0.7851 0.0248 -0.6189
# 288 vertex normals

vt 0.3750 1.0000 102.1500
vt 0.5000 0.5000 102.1500
vt 0.7500 0.5000 102.1500
vt 1.0000 0.5000 102.1500
vt 0.2500 0.5000 102.1500
vt 0.3750 0.0000 102.1500
vt 0.5000 0.7500 102.1500
vt 0.7500 0.7500 102.1500
vt 1.0000 0.7500 102.1500
vt 0.2500 0.7500 102.1500
vt 0.5000 0.2500 102.1500
vt 0.7500 0.2500 102.1500
vt 1.0000 0.2500 102.1500
vt 0.2500 0.2500 102.1500
vt 0.6250 0.5000 102.1500
vt 0.8750 0.5000 102.1500
vt 0.1250 0.5000 102.1500
vt 0.3750 0.5000 102.1500
vt 0.6250 1.0000 102.1500
vt 0.8750 1.0000 102.1500
vt 0.1250 1.0000 102.1500
vt 0.0000 0.7500 102.1500
vt 0.0000 0.7500 102.1500
vt 0.0000 0.5000 102.1500
vt 0.0000 0.7500 102.1500
vt 0.6250 0.0000 102.1500
vt 0.8750 0.0000 102.1500
vt 0.1250 0.0000 102.1500
vt 0.0000 0.2500 102.1500
vt 0.0000 0.2500 102.1500
vt 0.0000 0.2500 102.1500
vt 0.0000 0.5000 102.1500
vt 0.3750 1.0000 102.1500
vt 0.5000 0.5000 102.1500
vt 0.7500 0.5000 102.1500
vt 1.0000 0.5000 102.1500
vt 0.2500 0.5000 102.1500
vt 0.3750 0.0000 102.1500
vt 0.5000 0.7500 102.1500
vt 0.7500 0.7500 102.1500
vt 1.0000 0.7500 102.1500
vt 0.2500 0.7500 102.1500
vt 0.5000 0.2500 102.1500
vt 0.7500 0.2500 102.1500
vt 1.0000 0.2500 102.1500
vt 0.2500 0.2500 102.1500
vt 0.6250 0.5000 102.1500
vt 0.8750 0.5000 102.1500
vt 0.1250 0.5000 102.1500
vt 0.3750 0.5000 102.1500
vt 0.6250 1.0000 102.1500
vt 0.8750 1.0000 102.1500
vt 0.1250 1.0000 102.1500
vt 0.0000 0.7500 102.1500
vt 0.0000 0.7500 102.1500
vt 0.0000 0.5000 102.1500
vt 0.0000 0.7500 102.1500
vt 0.6250 0.0000 102.1500
vt 0.8750 0.0000 102.1500
vt 0.1250 0.0000 102.1500
vt 0.0000 0.2500 102.1500
vt 0.0000 0.2500 102.1500
vt 0.0000 0.2500 102.1500
vt 0.0000 0.5000 102.1500
vt 0.3750 1.0000 102.1500
vt 0.5000 0.5000 102.1500
vt 0.7500 0.5000 102.1500
vt 1.0000 0.5000 102.1500
vt 0.2500 0.5000 102.1500
vt 0.3750 0.0000 102.1500
vt 0.5000 0.7500 102.1500
vt 0.7500 0.7500 102.1500
vt 1.0000 0.7500 102.1500
vt 0.2500 0.7500 102.1500
vt 0.5000 0.2500 102.1500
vt 0.7500 0.2500 102.1500
vt 1.0000 0.2500 102.1500
vt 0.2500 0.2500 102.1500
vt 0.6250 0.5000 102.1500
vt 0.8750 0.5000 102.1500
vt 0.1250 0.5000 102.1500
vt 0.3750 0.5000 102.1500
vt 0.6250 1.0000 102.1500
vt 0.8750 1.0000 102.1500
vt 0.1250 1.0000 102.1500
vt 0.0000 0.7500 102.1500
vt 0.0000 0.7500 102.1500
vt 0.0000 0.5000 102.1500
vt 0.0000 0.7500 102.1500
vt 0.6250 0.0000 102.1500
vt 0.8750 0.0000 102.1500
vt 0.1250 0.0000 102.1500
vt 0.0000 0.2500 102.1500
vt 0.0000 0.2500 102.1500
vt 0.0000 0.2500 102.1500
vt 0.0000 0.5000 102.1500
# 96 texture coords

g tree_leaves_outline
s off
f 1/19/1 8/8/2 7/7/3 
f 7/7/4 15/15/5 2/2/6 
f 7/7/7 8/8/8 15/15/9 
f 8/8/10 3/3/11 15/15/12 
f 1/20/13 9/9/14 8/8/15 
f 8/8/16 16/16/17 3/3/18 
f 8/8/19 9/9/20 16/16/21 
f 9/9/22 4/4/23 16/16/24 
f 1/21/25 10/10/26 9/22/27 
f 9/23/28 17/17/29 4/24/30 
f 9/25/31 10/10/32 17/17/33 
f 10/10/34 5/5/35 17/17/36 
f 1/1/37 7/7/38 10/10/39 
f 10/10/40 18/18/41 5/5/42 
f 10/10/43 7/7/44 18/18/45 
f 7/7/46 2/2/47 18/18/48 
f 6/26/49 11/11/50 12/12/51 
f 12/12/52 15/15/53 3/3/54 
f 12/12/55 11/11/56 15/15/57 
f 11/11/58 2/2/59 15/15/60 
f 6/27/61 12/12/62 13/13/63 
f 13/13/64 16/16/65 4/4/66 
f 13/13/67 12/12/68 16/16/69 
f 12/12/70 3/3/71 16/16/72 
f 6/28/73 13/29/74 14/14/75 
f 14/14/76 17/17/77 5/5/78 
f 14/14/79 13/30/80 17/17/81 
f 13/31/82 4/32/83 17/17/84 
f 6/6/85 14/14/86 11/11/87 
f 11/11/88 18/18/89 2/2/90 
f 11/11/91 14/14/92 18/18/93 
f 14/14/94 5/5/95 18/18/96 
f 19/51/97 26/40/98 25/39/99 
f 25/39/100 33/47/101 20/34/102 
f 25/39/103 26/40/104 33/47/105 
f 26/40/106 21/35/107 33/47/108 
f 19/52/109 27/41/110 26/40/111 
f 26/40/112 34/48/113 21/35/114 
f 26/40/115 27/41/116 34/48/117 
f 27/41/118 22/36/119 34/48/120 
f 19/53/121 28/42/122 27/54/123 
f 27/55/124 35/49/125 22/56/126 
f 27/57/127 28/42/128 35/49/129 
f 28/42/130 23/37/131 35/49/132 
f 19/33/133 25/39/134 28/42/135 
f 28/42/136 36/50/137 23/37/138 
f 28/42/139 25/39/140 36/50/141 
f 25/39/142 20/34/143 36/50/144 
f 24/58/145 29/43/146 30/44/147 
f 30/44/148 33/47/149 21/35/150 
f 30/44/151 29/43/152 33/47/153 
f 29/43/154 20/34/155 33/47/156 
f 24/59/157 30/44/158 31/45/159 
f 31/45/160 34/48/161 22/36/162 
f 31/45/163 30/44/164 34/48/165 
f 30/44/166 21/35/167 34/48/168 
f 24/60/169 31/61/170 32/46/171 
f 32/46/172 35/49/173 23/37/174 
f 32/46/175 31/62/176 35/49/177 
f 31/63/178 22/64/179 35/49/180 
f 24/38/181 32/46/182 29/43/183 
f 29/43/184 36/50/185 20/34/186 
f 29/43/187 32/46/188 36/50/189 
f 32/46/190 23/37/191 36/50/192 
f 37/83/193 44/72/194 43/71/195 
f 43/71/196 51/79/197 38/66/198 
f 43/71/199 44/72/200 51/79/201 
f 44/72/202 39/67/203 51/79/204 
f 37/84/205 45/73/206 44/72/207 
f 44/72/208 52/80/209 39/67/210 
f 44/72/211 45/73/212 52/80/213 
f 45/73/214 40/68/215 52/80/216 
f 37/85/217 46/74/218 45/86/219 
f 45/87/220 53/81/221 40/88/222 
f 45/89/223 46/74/224 53/81/225 
f 46/74/226 41/69/227 53/81/228 
f 37/65/229 43/71/230 46/74/231 
f 46/74/232 54/82/233 41/69/234 
f 46/74/235 43/71/236 54/82/237 
f 43/71/238 38/66/239 54/82/240 
f 42/90/241 47/75/242 48/76/243 
f 48/76/244 51/79/245 39/67/246 
f 48/76/247 47/75/248 51/79/249 
f 47/75/250 38/66/251 51/79/252 
f 42/91/253 48/76/254 49/77/255 
f 49/77/256 52/80/257 40/68/258 
f 49/77/259 48/76/260 52/80/261 
f 48/76/262 39/67/263 52/80/264 
f 42/92/265 49/93/266 50/78/267 
f 50/78/268 53/81/269 41/69/270 
f 50/78/271 49/94/272 53/81/273 
f 49/95/274 40/96/275 53/81/276 
f 42/70/277 50/78/278 47/75/279 
f 47/75/280 54/82/281 38/66/282 
f 47/75/283 50/78/284 54/82/285 
f 50/78/286 41/69/287 54/82/288 
# 0 polygons - 96 triangles

