# 3ds Max Wavefront OBJ Exporter v0.97b - (c)2007 guruware
# File Created: 25.08.2016 21:13:51

#
# object tree_trunk_outline
#

v  2.2389 -0.3066 0.0400
v  0.6523 -0.3684 -2.0837
v  -1.8652 -0.2928 -1.2464
v  -1.8217 -0.2077 1.3998
v  0.7015 -0.2144 2.1879
v  2.6186 4.2786 -0.9220
v  2.1487 4.2396 -3.5987
v  -0.5502 4.0307 -4.0070
v  -1.7961 3.9809 -1.5792
v  0.1793 4.1615 0.3442
v  1.7391 8.4146 -2.0452
v  1.3809 7.6321 -4.0944
v  -0.7808 7.2762 -4.3351
v  -1.7086 7.8533 -2.4139
v  -0.1486 8.5385 -1.0219
v  0.3647 13.4058 -4.5990
v  0.4555 13.0646 -6.5126
v  -1.2197 13.3198 -7.2327
v  -2.3786 13.7551 -5.8656
v  -1.4885 13.7856 -4.2080
v  1.2742 16.9797 -4.3420
v  1.4203 16.7718 -6.1234
v  -0.1457 17.1239 -6.8678
v  -1.2559 17.5482 -5.5400
v  -0.3792 17.4596 -3.9809
v  1.1072 7.1721 -3.0371
v  0.2877 7.1666 -3.6170
v  -0.1162 8.3639 -3.9030
v  0.4111 9.2764 -3.5952
v  1.0487 8.4772 -2.6016
v  2.5880 7.6659 -3.9446
v  1.9443 7.4379 -4.9122
v  1.2977 8.4002 -5.1729
v  1.6321 9.2726 -4.3738
v  2.3828 8.7577 -3.5985
v  3.3646 8.9299 -4.5149
v  3.3015 8.0605 -5.2655
v  2.4464 8.2644 -5.9742
v  2.0329 9.2276 -5.5844
v  2.7533 9.8079 -4.8436
v  3.6557 9.6773 -6.1450
v  3.3725 8.7567 -6.6510
v  2.2583 8.7863 -6.8557
v  1.8769 9.7257 -6.4888
v  2.7476 10.3042 -6.0981
v  1.6543 7.6633 -2.5066
v  0.4742 8.6671 -3.7256
v  -1.0951 6.4712 -3.2949
v  -1.0447 5.4909 -1.6943
v  0.7308 6.9664 -1.1511
v  1.2102 9.6669 -0.5877
v  0.3949 10.1830 -1.5681
v  -0.8752 9.9949 -1.1817
v  -0.8531 9.5605 0.0648
v  0.3960 9.3064 0.4165
v  1.5643 11.5626 0.5880
v  1.4552 12.1347 -0.5759
v  0.2500 11.9961 -1.0463
v  -0.5109 11.4126 -0.0792
v  0.3771 11.0838 0.9605
v  0.9058 12.9663 1.3501
v  0.7984 13.5382 0.2604
v  -0.3367 13.3198 -0.1750
v  -0.9308 12.6129 0.6455
v  -0.1629 12.3945 1.5880
# 65 vertices

vn -0.9800 0.1467 -0.1346
vn -0.9060 -0.1910 -0.3778
vn -0.7118 0.1178 0.6924
vn -0.2741 0.4854 0.8302
vn -0.2741 0.4854 0.8302
vn -0.7118 0.1178 0.6924
vn 0.4046 0.2063 0.8909
vn 0.8792 0.1855 0.4389
vn 0.8792 0.1855 0.4389
vn 0.4046 0.2063 0.8909
vn 0.9862 -0.1307 -0.1015
vn 0.7199 -0.2950 -0.6282
vn 0.7199 -0.2950 -0.6282
vn 0.9862 -0.1307 -0.1015
vn 0.1229 -0.3975 -0.9093
vn -0.2470 -0.3035 -0.9203
vn -0.2470 -0.3035 -0.9203
vn 0.1229 -0.3975 -0.9093
vn -0.9060 -0.1910 -0.3778
vn -0.9800 0.1467 -0.1346
vn -0.9060 -0.1910 -0.3778
vn -0.8568 -0.3314 -0.3950
vn -0.7174 0.0747 0.6926
vn -0.7118 0.1178 0.6924
vn -0.7118 0.1178 0.6924
vn -0.7174 0.0747 0.6926
vn 0.4907 0.2858 0.8231
vn 0.4046 0.2063 0.8909
vn 0.4046 0.2063 0.8909
vn 0.4907 0.2858 0.8231
vn 0.9731 -0.0205 -0.2295
vn 0.9862 -0.1307 -0.1015
vn 0.9862 -0.1307 -0.1015
vn 0.9731 -0.0205 -0.2295
vn 0.1268 -0.3761 -0.9179
vn 0.1229 -0.3975 -0.9093
vn 0.1229 -0.3975 -0.9093
vn 0.1268 -0.3761 -0.9179
vn -0.8568 -0.3314 -0.3950
vn -0.9060 -0.1910 -0.3778
vn -0.8568 -0.3314 -0.3950
vn -0.7972 -0.1562 -0.5832
vn -0.7574 0.1471 0.6361
vn -0.7174 0.0747 0.6926
vn -0.7174 0.0747 0.6926
vn -0.7574 0.1471 0.6361
vn 0.2861 0.1292 0.9495
vn 0.4907 0.2858 0.8231
vn 0.4907 0.2858 0.8231
vn 0.2861 0.1292 0.9495
vn 0.9793 -0.0843 0.1840
vn 0.9731 -0.0205 -0.2295
vn 0.9731 -0.0205 -0.2295
vn 0.9793 -0.0843 0.1840
vn 0.5089 -0.2531 -0.8227
vn 0.1268 -0.3761 -0.9179
vn 0.1268 -0.3761 -0.9179
vn 0.5089 -0.2531 -0.8227
vn -0.7972 -0.1562 -0.5832
vn -0.8568 -0.3314 -0.3950
vn -0.7972 -0.1562 -0.5832
vn -0.6720 0.2212 -0.7067
vn -0.8793 0.1782 0.4417
vn -0.7574 0.1471 0.6361
vn -0.7574 0.1471 0.6361
vn -0.8793 0.1782 0.4417
vn 0.1819 -0.1523 0.9714
vn 0.2861 0.1292 0.9495
vn 0.2861 0.1292 0.9495
vn 0.1819 -0.1523 0.9714
vn 0.9569 -0.2863 0.0491
vn 0.9793 -0.0843 0.1840
vn 0.9793 -0.0843 0.1840
vn 0.9569 -0.2863 0.0491
vn 0.3863 -0.0527 -0.9208
vn 0.5089 -0.2531 -0.8227
vn 0.5089 -0.2531 -0.8227
vn 0.3863 -0.0527 -0.9208
vn -0.6720 0.2212 -0.7067
vn -0.7972 -0.1562 -0.5832
vn 0.0143 0.9993 -0.0357
vn 0.0163 0.9990 -0.0412
vn 0.0144 0.9993 -0.0353
vn 0.0134 0.9994 -0.0327
vn 0.0131 0.9994 -0.0335
vn -0.2591 -0.9616 0.0909
vn -0.2588 -0.9616 0.0909
vn -0.2592 -0.9616 0.0908
vn -0.2593 -0.9615 0.0909
vn -0.2592 -0.9615 0.0909
vn -0.4156 0.8271 -0.3785
vn -0.6440 0.6315 -0.4319
vn 0.0395 0.8945 0.4453
vn 0.3236 0.7972 0.5097
vn 0.3236 0.7972 0.5097
vn 0.0395 0.8945 0.4453
vn 0.6859 -0.0287 0.7271
vn 0.6313 -0.1034 0.7686
vn 0.6313 -0.1034 0.7686
vn 0.6859 -0.0287 0.7271
vn 0.3321 -0.9432 -0.0119
vn 0.2027 -0.9473 0.2483
vn 0.2027 -0.9473 0.2483
vn 0.3321 -0.9432 -0.0119
vn -0.4965 -0.3990 -0.7709
vn -0.4890 -0.3573 -0.7957
vn -0.4890 -0.3573 -0.7957
vn -0.4965 -0.3990 -0.7709
vn -0.6440 0.6315 -0.4319
vn -0.4156 0.8271 -0.3785
vn -0.6440 0.6315 -0.4319
vn -0.8628 -0.1570 -0.4806
vn -0.7568 0.6408 0.1292
vn 0.0395 0.8945 0.4453
vn 0.0395 0.8945 0.4453
vn -0.7568 0.6408 0.1292
vn 0.2540 0.7322 0.6320
vn 0.6859 -0.0287 0.7271
vn 0.6859 -0.0287 0.7271
vn 0.2540 0.7322 0.6320
vn 0.9001 -0.3991 0.1750
vn 0.3321 -0.9432 -0.0119
vn 0.3321 -0.9432 -0.0119
vn 0.9001 -0.3991 0.1750
vn -0.0806 -0.9032 -0.4215
vn -0.4965 -0.3990 -0.7709
vn -0.4965 -0.3990 -0.7709
vn -0.0806 -0.9032 -0.4215
vn -0.8628 -0.1570 -0.4806
vn -0.6440 0.6315 -0.4319
vn -0.8628 -0.1570 -0.4806
vn -0.9391 -0.2558 -0.2294
vn -0.6246 0.7286 0.2812
vn -0.7568 0.6408 0.1292
vn -0.7568 0.6408 0.1292
vn -0.6246 0.7286 0.2812
vn 0.6379 0.7253 0.2589
vn 0.2540 0.7322 0.6320
vn 0.2540 0.7322 0.6320
vn 0.6379 0.7253 0.2589
vn 0.9527 -0.1595 -0.2588
vn 0.9001 -0.3991 0.1750
vn 0.9001 -0.3991 0.1750
vn 0.9527 -0.1595 -0.2588
vn 0.1727 -0.8898 -0.4224
vn -0.0806 -0.9032 -0.4215
vn -0.0806 -0.9032 -0.4215
vn 0.1727 -0.8898 -0.4224
vn -0.9391 -0.2558 -0.2294
vn -0.8628 -0.1570 -0.4806
vn 0.7033 0.0544 -0.7088
vn 0.5776 -0.0001 -0.8163
vn 0.5583 -0.0293 -0.8291
vn 0.7074 0.0469 -0.7052
vn 0.8875 0.1812 -0.4238
vn -0.1834 -0.4041 0.8961
vn -0.1347 -0.4074 0.9033
vn -0.1619 -0.3984 0.9028
vn -0.1973 -0.3996 0.8952
vn -0.2380 -0.4106 0.8802
vn -0.9772 -0.2118 -0.0158
vn -0.9932 0.1012 -0.0578
vn -0.3025 -0.5074 0.8069
vn 0.0578 -0.7180 0.6936
vn 0.0578 -0.7180 0.6936
vn -0.3025 -0.5074 0.8069
vn 0.8647 -0.3525 0.3577
vn 0.9658 -0.1723 0.1936
vn 0.9658 -0.1723 0.1936
vn 0.8647 -0.3525 0.3577
vn 0.8028 0.0901 -0.5893
vn 0.8584 0.2139 -0.4662
vn 0.8584 0.2139 -0.4662
vn 0.8028 0.0901 -0.5893
vn -0.2496 0.4018 -0.8811
vn -0.5185 0.4396 -0.7335
vn -0.5185 0.4396 -0.7335
vn -0.2496 0.4018 -0.8811
vn -0.9932 0.1012 -0.0578
vn -0.9772 -0.2118 -0.0158
vn -0.9932 0.1012 -0.0578
vn -0.8872 0.0869 -0.4530
vn -0.7853 -0.3420 0.5160
vn -0.3025 -0.5074 0.8069
vn -0.3025 -0.5074 0.8069
vn -0.7853 -0.3420 0.5160
vn 0.2205 -0.4193 0.8807
vn 0.8647 -0.3525 0.3577
vn 0.8647 -0.3525 0.3577
vn 0.2205 -0.4193 0.8807
vn 0.9962 -0.0824 -0.0271
vn 0.8028 0.0901 -0.5893
vn 0.8028 0.0901 -0.5893
vn 0.9962 -0.0824 -0.0271
vn 0.1244 0.3184 -0.9398
vn -0.2496 0.4018 -0.8811
vn -0.2496 0.4018 -0.8811
vn 0.1244 0.3184 -0.9398
vn -0.8872 0.0869 -0.4530
vn -0.9932 0.1012 -0.0578
vn -0.8872 0.0869 -0.4530
vn -0.7901 -0.0518 -0.6108
vn -0.6881 -0.5824 0.4328
vn -0.7853 -0.3420 0.5160
vn -0.7853 -0.3420 0.5160
vn -0.6881 -0.5824 0.4328
vn 0.3896 -0.3670 0.8447
vn 0.2205 -0.4193 0.8807
vn 0.2205 -0.4193 0.8807
vn 0.3896 -0.3670 0.8447
vn 0.9491 0.3082 0.0656
vn 0.9962 -0.0824 -0.0271
vn 0.9962 -0.0824 -0.0271
vn 0.9491 0.3082 0.0656
vn 0.2379 0.5007 -0.8323
vn 0.1244 0.3184 -0.9398
vn 0.1244 0.3184 -0.9398
vn 0.2379 0.5007 -0.8323
vn -0.7901 -0.0518 -0.6108
vn -0.8872 0.0869 -0.4530
vn -0.5328 0.6704 0.5165
vn -0.4222 0.4555 0.7838
vn -0.4583 0.6730 0.5806
vn -0.5297 0.7814 0.3298
vn -0.6327 0.7737 -0.0333
vn 0.3356 -0.8201 -0.4635
vn 0.3356 -0.8201 -0.4635
vn 0.3356 -0.8201 -0.4635
vn 0.3356 -0.8201 -0.4635
vn 0.3357 -0.8201 -0.4635
# 230 vertex normals

vt 0.7500 0.0000 1.0000
vt 0.9500 0.0000 1.0000
vt 0.1500 0.0000 1.0000
vt 0.3500 0.0000 1.0000
vt 0.5500 0.0000 1.0000
vt 0.7500 0.2500 1.0000
vt 0.9500 0.2500 1.0000
vt 0.1500 0.2500 1.0000
vt 0.3500 0.2500 1.0000
vt 0.5500 0.2500 1.0000
vt 0.7500 0.5000 1.0000
vt 0.9500 0.5000 1.0000
vt 0.1500 0.5000 1.0000
vt 0.3500 0.5000 1.0000
vt 0.5500 0.5000 1.0000
vt 0.7500 0.7500 1.0000
vt 0.9500 0.7500 1.0000
vt 0.1500 0.7500 1.0000
vt 0.3500 0.7500 1.0000
vt 0.5500 0.7500 1.0000
vt 0.7500 1.0000 1.0000
vt 0.9500 1.0000 1.0000
vt 0.1500 1.0000 1.0000
vt 0.3500 1.0000 1.0000
vt 0.5500 1.0000 1.0000
vt 1.1500 0.0000 1.0000
vt 1.1500 0.2500 1.0000
vt 1.1500 0.5000 1.0000
vt 1.1500 0.7500 1.0000
vt 1.1500 1.0000 1.0000
vt 0.9755 0.6545 -0.2500
vt 0.7939 0.0955 -0.2500
vt 0.2061 0.0955 -0.2500
vt 0.0245 0.6545 -0.2500
vt 0.5000 1.0000 -0.2500
vt 0.5000 1.0000 0.2500
vt 0.0245 0.6545 0.2500
vt 0.2061 0.0955 0.2500
vt 0.7939 0.0955 0.2500
vt 0.9755 0.6545 0.2500
vt 0.7500 0.0000 1.0000
vt 0.9500 0.0000 1.0000
vt 0.1500 0.0000 1.0000
vt 0.3500 0.0000 1.0000
vt 0.5500 0.0000 1.0000
vt 0.7500 0.3333 1.0000
vt 0.9500 0.3333 1.0000
vt 0.1500 0.3333 1.0000
vt 0.3500 0.3333 1.0000
vt 0.5500 0.3333 1.0000
vt 0.7500 0.6667 1.0000
vt 0.9500 0.6667 1.0000
vt 0.1500 0.6667 1.0000
vt 0.3500 0.6667 1.0000
vt 0.5500 0.6667 1.0000
vt 0.7500 1.0000 1.0000
vt 0.9500 1.0000 1.0000
vt 0.1500 1.0000 1.0000
vt 0.3500 1.0000 1.0000
vt 0.5500 1.0000 1.0000
vt 1.1500 0.0000 1.0000
vt 1.1500 0.3333 1.0000
vt 1.1500 0.6667 1.0000
vt 1.1500 1.0000 1.0000
vt 0.9755 0.6545 -0.2500
vt 0.7939 0.0955 -0.2500
vt 0.2061 0.0955 -0.2500
vt 0.0245 0.6545 -0.2500
vt 0.5000 1.0000 -0.2500
vt 0.5000 1.0000 0.2500
vt 0.0245 0.6545 0.2500
vt 0.2061 0.0955 0.2500
vt 0.7939 0.0955 0.2500
vt 0.9755 0.6545 0.2500
vt 0.7500 0.0000 1.0000
vt 0.9500 0.0000 1.0000
vt 0.1500 0.0000 1.0000
vt 0.3500 0.0000 1.0000
vt 0.5500 0.0000 1.0000
vt 0.7500 0.3333 1.0000
vt 0.9500 0.3333 1.0000
vt 0.1500 0.3333 1.0000
vt 0.3500 0.3333 1.0000
vt 0.5500 0.3333 1.0000
vt 0.7500 0.6667 1.0000
vt 0.9500 0.6667 1.0000
vt 0.1500 0.6667 1.0000
vt 0.3500 0.6667 1.0000
vt 0.5500 0.6667 1.0000
vt 0.7500 1.0000 1.0000
vt 0.9500 1.0000 1.0000
vt 0.1500 1.0000 1.0000
vt 0.3500 1.0000 1.0000
vt 0.5500 1.0000 1.0000
vt 1.1500 0.0000 1.0000
vt 1.1500 0.3333 1.0000
vt 1.1500 0.6667 1.0000
vt 1.1500 1.0000 1.0000
vt 0.9755 0.6545 -0.2500
vt 0.7939 0.0955 -0.2500
vt 0.2061 0.0955 -0.2500
vt 0.0245 0.6545 -0.2500
vt 0.5000 1.0000 -0.2500
vt 0.5000 1.0000 0.2500
vt 0.0245 0.6545 0.2500
vt 0.2061 0.0955 0.2500
vt 0.7939 0.0955 0.2500
vt 0.9755 0.6545 0.2500
# 108 texture coords

g tree_trunk_outline
s 8
f 1/1/1 6/6/2 7/7/3 2/2/4 
f 2/2/5 7/7/6 8/27/7 3/26/8 
f 3/3/9 8/8/10 9/9/11 4/4/12 
f 4/4/13 9/9/14 10/10/15 5/5/16 
f 5/5/17 10/10/18 6/6/19 1/1/20 
f 6/6/21 11/11/22 12/12/23 7/7/24 
f 7/7/25 12/12/26 13/28/27 8/27/28 
f 8/8/29 13/13/30 14/14/31 9/9/32 
f 9/9/33 14/14/34 15/15/35 10/10/36 
f 10/10/37 15/15/38 11/11/39 6/6/40 
f 11/11/41 16/16/42 17/17/43 12/12/44 
f 12/12/45 17/17/46 18/29/47 13/28/48 
f 13/13/49 18/18/50 19/19/51 14/14/52 
f 14/14/53 19/19/54 20/20/55 15/15/56 
f 15/15/57 20/20/58 16/16/59 11/11/60 
f 16/16/61 21/21/62 22/22/63 17/17/64 
f 17/17/65 22/22/66 23/30/67 18/29/68 
f 18/18/69 23/23/70 24/24/71 19/19/72 
f 19/19/73 24/24/74 25/25/75 20/20/76 
f 20/20/77 25/25/78 21/21/79 16/16/80 
s 1
f 1/35/81 2/34/82 3/33/83 4/32/84 5/31/85 
f 25/40/86 24/39/87 23/38/88 22/37/89 21/36/90 
s 8
f 26/41/91 31/46/92 32/47/93 27/42/94 
f 27/42/95 32/47/96 33/62/97 28/61/98 
f 28/43/99 33/48/100 34/49/101 29/44/102 
f 29/44/103 34/49/104 35/50/105 30/45/106 
f 30/45/107 35/50/108 31/46/109 26/41/110 
f 31/46/111 36/51/112 37/52/113 32/47/114 
f 32/47/115 37/52/116 38/63/117 33/62/118 
f 33/48/119 38/53/120 39/54/121 34/49/122 
f 34/49/123 39/54/124 40/55/125 35/50/126 
f 35/50/127 40/55/128 36/51/129 31/46/130 
f 36/51/131 41/56/132 42/57/133 37/52/134 
f 37/52/135 42/57/136 43/64/137 38/63/138 
f 38/53/139 43/58/140 44/59/141 39/54/142 
f 39/54/143 44/59/144 45/60/145 40/55/146 
f 40/55/147 45/60/148 41/56/149 36/51/150 
s 1
f 26/69/151 27/68/152 28/67/153 29/66/154 30/65/155 
f 45/74/156 44/73/157 43/72/158 42/71/159 41/70/160 
s 8
f 46/75/161 51/80/162 52/81/163 47/76/164 
f 47/76/165 52/81/166 53/96/167 48/95/168 
f 48/77/169 53/82/170 54/83/171 49/78/172 
f 49/78/173 54/83/174 55/84/175 50/79/176 
f 50/79/177 55/84/178 51/80/179 46/75/180 
f 51/80/181 56/85/182 57/86/183 52/81/184 
f 52/81/185 57/86/186 58/97/187 53/96/188 
f 53/82/189 58/87/190 59/88/191 54/83/192 
f 54/83/193 59/88/194 60/89/195 55/84/196 
f 55/84/197 60/89/198 56/85/199 51/80/200 
f 56/85/201 61/90/202 62/91/203 57/86/204 
f 57/86/205 62/91/206 63/98/207 58/97/208 
f 58/87/209 63/92/210 64/93/211 59/88/212 
f 59/88/213 64/93/214 65/94/215 60/89/216 
f 60/89/217 65/94/218 61/90/219 56/85/220 
s 1
f 46/103/221 47/102/222 48/101/223 49/100/224 50/99/225 
f 65/108/226 64/107/227 63/106/228 62/105/229 61/104/230 
# 56 polygons

