# 3ds Max Wavefront OBJ Exporter v0.97b - (c)2007 guruware
# File Created: 25.08.2016 21:13:39

#
# object tree_trunk
#

v  1.8460 0.0000 -0.0000
v  0.5704 0.0000 -1.7556
v  -1.4934 0.0000 -1.0850
v  -1.4934 0.0000 1.0850
v  0.5704 0.0000 1.7556
v  2.1698 4.2002 -1.1280
v  1.7874 4.3137 -3.2611
v  -0.3560 4.1669 -3.5669
v  -1.2983 3.9628 -1.6228
v  0.2627 3.9834 -0.1155
v  1.3083 8.2415 -2.2308
v  1.0294 7.6617 -3.7401
v  -0.5340 7.4085 -3.9208
v  -1.2212 7.8317 -2.5233
v  -0.0827 8.3465 -1.4788
v  -0.0311 13.3331 -4.8957
v  0.0660 13.1499 -6.2110
v  -1.0808 13.3929 -6.7579
v  -1.8867 13.7264 -5.7808
v  -1.2379 13.6895 -4.6298
v  0.9079 16.7643 -4.6055
v  1.0049 16.5810 -5.9207
v  -0.1419 16.8241 -6.4677
v  -0.9477 17.1576 -5.4905
v  -0.2989 17.1206 -4.3396
v  1.0691 7.5586 -3.3519
v  0.6313 7.5270 -3.6626
v  0.3802 8.3252 -3.8568
v  0.6627 8.8502 -3.6661
v  1.0885 8.3764 -3.0897
v  2.2379 7.9708 -4.1303
v  1.9436 7.8669 -4.6553
v  1.6215 8.3672 -4.7934
v  1.7167 8.7803 -4.3536
v  2.0977 8.5353 -3.9438
v  2.9794 8.8518 -4.8240
v  2.9469 8.4126 -5.2472
v  2.6701 8.6450 -5.7396
v  2.5316 9.2279 -5.6207
v  2.7227 9.3557 -5.0548
v  3.2253 9.4566 -6.0184
v  3.0700 8.9345 -6.2948
v  2.4794 8.9696 -6.4464
v  2.2696 9.5134 -6.2636
v  2.7306 9.8143 -5.9991
v  1.2262 7.8641 -2.3439
v  0.4218 8.4765 -3.2663
v  -0.8797 6.7131 -2.9140
v  -0.8797 5.9562 -1.7739
v  0.4218 7.2518 -1.4215
v  0.7112 9.6871 -0.6124
v  0.2627 9.8686 -1.2025
v  -0.4631 9.7993 -0.9771
v  -0.4631 9.5749 -0.2478
v  0.2627 9.5055 -0.0224
v  1.1237 11.6392 0.3645
v  1.0573 11.9925 -0.3087
v  0.3560 11.8576 -0.5777
v  -0.0110 11.4209 -0.0708
v  0.4634 11.2859 0.5115
v  0.6805 12.7221 0.9765
v  0.6141 13.0754 0.3033
v  -0.0871 12.9404 0.0343
v  -0.4542 12.5037 0.5412
v  0.0203 12.3688 1.1235
# 65 vertices

vn 0.9811 -0.1095 0.1595
vn 0.2862 -0.4735 -0.8330
vn 0.7090 -0.1153 -0.6957
vn 0.9062 0.1936 0.3758
vn 0.2862 -0.4735 -0.8330
vn -0.8833 -0.1600 -0.4406
vn -0.4160 -0.2076 -0.8854
vn 0.7090 -0.1153 -0.6957
vn -0.8833 -0.1600 -0.4406
vn -0.7104 0.3336 0.6197
vn -0.9830 0.1407 0.1181
vn -0.4160 -0.2076 -0.8854
vn -0.7104 0.3336 0.6197
vn 0.2208 0.3480 0.9111
vn -0.1180 0.4152 0.9021
vn -0.9830 0.1407 0.1181
vn 0.2208 0.3480 0.9111
vn 0.9811 -0.1095 0.1595
vn 0.9062 0.1936 0.3758
vn -0.1180 0.4152 0.9021
vn 0.9062 0.1936 0.3758
vn 0.7090 -0.1153 -0.6957
vn 0.7150 -0.0733 -0.6953
vn 0.8595 0.3300 0.3903
vn 0.7090 -0.1153 -0.6957
vn -0.4160 -0.2076 -0.8854
vn -0.4853 -0.2795 -0.8285
vn 0.7150 -0.0733 -0.6953
vn -0.4160 -0.2076 -0.8854
vn -0.9830 0.1407 0.1181
vn -0.9759 0.0250 0.2167
vn -0.4853 -0.2795 -0.8285
vn -0.9830 0.1407 0.1181
vn -0.1180 0.4152 0.9021
vn -0.1327 0.3803 0.9153
vn -0.9759 0.0250 0.2167
vn -0.1180 0.4152 0.9021
vn 0.9062 0.1936 0.3758
vn 0.8595 0.3300 0.3903
vn -0.1327 0.3803 0.9153
vn 0.8595 0.3300 0.3903
vn 0.7150 -0.0733 -0.6953
vn 0.7726 -0.1589 -0.6147
vn 0.7970 0.1535 0.5841
vn 0.7150 -0.0733 -0.6953
vn -0.4853 -0.2795 -0.8285
vn -0.2816 -0.1380 -0.9495
vn 0.7726 -0.1589 -0.6147
vn -0.4853 -0.2795 -0.8285
vn -0.9759 0.0250 0.2167
vn -0.9832 0.0743 -0.1668
vn -0.2816 -0.1380 -0.9495
vn -0.9759 0.0250 0.2167
vn -0.1327 0.3803 0.9153
vn -0.4874 0.2225 0.8443
vn -0.9832 0.0743 -0.1668
vn -0.1327 0.3803 0.9153
vn 0.8595 0.3300 0.3903
vn 0.7970 0.1535 0.5841
vn -0.4874 0.2225 0.8443
vn 0.7970 0.1535 0.5841
vn 0.7726 -0.1589 -0.6147
vn 0.8768 -0.2031 -0.4358
vn 0.6615 -0.2411 0.7101
vn 0.7726 -0.1589 -0.6147
vn -0.2816 -0.1380 -0.9495
vn -0.1861 0.1333 -0.9734
vn 0.8768 -0.2031 -0.4358
vn -0.2816 -0.1380 -0.9495
vn -0.9832 0.0743 -0.1668
vn -0.9630 0.2668 -0.0388
vn -0.1861 0.1333 -0.9734
vn -0.9832 0.0743 -0.1668
vn -0.4874 0.2225 0.8443
vn -0.3891 0.0286 0.9207
vn -0.9630 0.2668 -0.0388
vn -0.4874 0.2225 0.8443
vn 0.7970 0.1535 0.5841
vn 0.6615 -0.2411 0.7101
vn -0.3891 0.0286 0.9207
vn 0.0000 -1.0000 -0.0000
vn 0.0000 -1.0000 -0.0000
vn 0.0000 -1.0000 -0.0000
vn 0.0000 -1.0000 -0.0000
vn 0.0000 -1.0000 -0.0000
vn 0.2580 0.9593 -0.1146
vn 0.2580 0.9593 -0.1146
vn 0.2580 0.9593 -0.1146
vn 0.2580 0.9593 -0.1146
vn 0.2580 0.9593 -0.1146
vn 0.4535 -0.8277 0.3305
vn -0.2539 -0.7918 -0.5555
vn -0.0155 -0.8877 -0.4602
vn 0.6634 -0.6171 0.4231
vn -0.2539 -0.7918 -0.5555
vn -0.5702 0.0956 -0.8159
vn -0.6784 0.0121 -0.7346
vn -0.0155 -0.8877 -0.4602
vn -0.5702 0.0956 -0.8159
vn -0.1615 0.9474 -0.2762
vn -0.3130 0.9496 -0.0177
vn -0.6784 0.0121 -0.7346
vn -0.1615 0.9474 -0.2762
vn 0.5434 0.3624 0.7572
vn 0.5213 0.4360 0.7336
vn -0.3130 0.9496 -0.0177
vn 0.5434 0.3624 0.7572
vn 0.4535 -0.8277 0.3305
vn 0.6634 -0.6171 0.4231
vn 0.5213 0.4360 0.7336
vn 0.6634 -0.6171 0.4231
vn -0.0155 -0.8877 -0.4602
vn 0.7280 -0.6740 -0.1250
vn 0.8574 0.1241 0.4995
vn -0.0155 -0.8877 -0.4602
vn -0.6784 0.0121 -0.7346
vn -0.4234 -0.7481 -0.5109
vn 0.7280 -0.6740 -0.1250
vn -0.6784 0.0121 -0.7346
vn -0.3130 0.9496 -0.0177
vn -0.9498 0.3113 0.0314
vn -0.4234 -0.7481 -0.5109
vn -0.3130 0.9496 -0.0177
vn 0.5213 0.4360 0.7336
vn 0.1090 0.8950 0.4325
vn -0.9498 0.3113 0.0314
vn 0.5213 0.4360 0.7336
vn 0.6634 -0.6171 0.4231
vn 0.8574 0.1241 0.4995
vn 0.1090 0.8950 0.4325
vn 0.8574 0.1241 0.4995
vn 0.7280 -0.6740 -0.1250
vn 0.6178 -0.7419 -0.2606
vn 0.9282 0.2605 0.2657
vn 0.7280 -0.6740 -0.1250
vn -0.4234 -0.7481 -0.5109
vn -0.6825 -0.7155 -0.1495
vn 0.6178 -0.7419 -0.2606
vn -0.4234 -0.7481 -0.5109
vn -0.9498 0.3113 0.0314
vn -0.9302 0.0702 0.3603
vn -0.6825 -0.7155 -0.1495
vn -0.9498 0.3113 0.0314
vn 0.1090 0.8950 0.4325
vn -0.2384 0.8191 0.5218
vn -0.9302 0.0702 0.3603
vn 0.1090 0.8950 0.4325
vn 0.8574 0.1241 0.4995
vn 0.9282 0.2605 0.2657
vn -0.2384 0.8191 0.5218
vn -0.5795 0.0159 0.8148
vn -0.5795 0.0159 0.8148
vn -0.6841 -0.0381 0.7283
vn -0.8486 -0.1431 0.5093
vn -0.7026 -0.0484 0.7099
vn 0.2504 0.3938 -0.8844
vn 0.2504 0.3938 -0.8844
vn 0.2504 0.3938 -0.8844
vn 0.2504 0.3938 -0.8844
vn 0.2504 0.3938 -0.8844
vn 0.9718 0.2238 0.0738
vn -0.1149 0.7493 -0.6521
vn 0.3044 0.5612 -0.7697
vn 0.9935 -0.0967 0.0600
vn -0.1149 0.7493 -0.6521
vn -0.9611 0.2253 -0.1595
vn -0.8452 0.3951 -0.3598
vn 0.3044 0.5612 -0.7697
vn -0.9611 0.2253 -0.1595
vn -0.8798 -0.1315 0.4567
vn -0.8016 -0.0655 0.5943
vn -0.8452 0.3951 -0.3598
vn -0.8798 -0.1315 0.4567
vn 0.5170 -0.4252 0.7429
vn 0.2659 -0.3849 0.8838
vn -0.8016 -0.0655 0.5943
vn 0.5170 -0.4252 0.7429
vn 0.9718 0.2238 0.0738
vn 0.9935 -0.0967 0.0600
vn 0.2659 -0.3849 0.8838
vn 0.9935 -0.0967 0.0600
vn 0.3044 0.5612 -0.7697
vn 0.7821 0.3255 -0.5314
vn 0.8869 -0.1220 0.4457
vn 0.3044 0.5612 -0.7697
vn -0.8452 0.3951 -0.3598
vn -0.2608 0.3675 -0.8927
vn 0.7821 0.3255 -0.5314
vn -0.8452 0.3951 -0.3598
vn -0.8016 -0.0655 0.5943
vn -0.9978 0.0327 0.0583
vn -0.2608 0.3675 -0.8927
vn -0.8016 -0.0655 0.5943
vn 0.2659 -0.3849 0.8838
vn -0.1417 -0.3633 0.9208
vn -0.9978 0.0327 0.0583
vn 0.2659 -0.3849 0.8838
vn 0.9935 -0.0967 0.0600
vn 0.8869 -0.1220 0.4457
vn -0.1417 -0.3633 0.9208
vn 0.8869 -0.1220 0.4457
vn 0.7821 0.3255 -0.5314
vn 0.7077 0.5443 -0.4505
vn 0.8100 -0.0000 0.5865
vn 0.7821 0.3255 -0.5314
vn -0.2608 0.3675 -0.8927
vn -0.3726 0.3364 -0.8649
vn 0.7077 0.5443 -0.4505
vn -0.2608 0.3675 -0.8927
vn -0.9978 0.0327 0.0583
vn -0.9380 -0.3364 -0.0841
vn -0.3726 0.3364 -0.8649
vn -0.9978 0.0327 0.0583
vn -0.1417 -0.3633 0.9208
vn -0.2071 -0.5443 0.8129
vn -0.9380 -0.3364 -0.0841
vn -0.1417 -0.3633 0.9208
vn 0.8869 -0.1220 0.4457
vn 0.8100 -0.0000 0.5865
vn -0.2071 -0.5443 0.8129
vn 0.5105 -0.6625 -0.5482
vn 0.4677 -0.4919 -0.7344
vn 0.5779 -0.6495 -0.4941
vn 0.6841 -0.7196 0.1189
vn 0.5866 -0.7435 -0.3211
vn -0.3356 0.8201 0.4635
vn -0.3356 0.8201 0.4635
vn -0.3356 0.8201 0.4635
vn -0.3356 0.8201 0.4635
vn -0.3356 0.8201 0.4635
# 230 vertex normals

vt 0.7500 0.0000 1.0000
vt 0.9500 0.0000 1.0000
vt 0.1500 0.0000 1.0000
vt 0.3500 0.0000 1.0000
vt 0.5500 0.0000 1.0000
vt 0.7500 0.2500 1.0000
vt 0.9500 0.2500 1.0000
vt 0.1500 0.2500 1.0000
vt 0.3500 0.2500 1.0000
vt 0.5500 0.2500 1.0000
vt 0.7500 0.5000 1.0000
vt 0.9500 0.5000 1.0000
vt 0.1500 0.5000 1.0000
vt 0.3500 0.5000 1.0000
vt 0.5500 0.5000 1.0000
vt 0.7500 0.7500 1.0000
vt 0.9500 0.7500 1.0000
vt 0.1500 0.7500 1.0000
vt 0.3500 0.7500 1.0000
vt 0.5500 0.7500 1.0000
vt 0.7500 1.0000 1.0000
vt 0.9500 1.0000 1.0000
vt 0.1500 1.0000 1.0000
vt 0.3500 1.0000 1.0000
vt 0.5500 1.0000 1.0000
vt 1.1500 0.0000 1.0000
vt 1.1500 0.2500 1.0000
vt 1.1500 0.5000 1.0000
vt 1.1500 0.7500 1.0000
vt 1.1500 1.0000 1.0000
vt 0.9755 0.6545 -0.2500
vt 0.7939 0.0955 -0.2500
vt 0.2061 0.0955 -0.2500
vt 0.0245 0.6545 -0.2500
vt 0.5000 1.0000 -0.2500
vt 0.5000 1.0000 0.2500
vt 0.0245 0.6545 0.2500
vt 0.2061 0.0955 0.2500
vt 0.7939 0.0955 0.2500
vt 0.9755 0.6545 0.2500
vt 0.7500 0.0000 1.0000
vt 0.9500 0.0000 1.0000
vt 0.1500 0.0000 1.0000
vt 0.3500 0.0000 1.0000
vt 0.5500 0.0000 1.0000
vt 0.7500 0.3333 1.0000
vt 0.9500 0.3333 1.0000
vt 0.1500 0.3333 1.0000
vt 0.3500 0.3333 1.0000
vt 0.5500 0.3333 1.0000
vt 0.7500 0.6667 1.0000
vt 0.9500 0.6667 1.0000
vt 0.1500 0.6667 1.0000
vt 0.3500 0.6667 1.0000
vt 0.5500 0.6667 1.0000
vt 0.7500 1.0000 1.0000
vt 0.9500 1.0000 1.0000
vt 0.1500 1.0000 1.0000
vt 0.3500 1.0000 1.0000
vt 0.5500 1.0000 1.0000
vt 1.1500 0.0000 1.0000
vt 1.1500 0.3333 1.0000
vt 1.1500 0.6667 1.0000
vt 1.1500 1.0000 1.0000
vt 0.9755 0.6545 -0.2500
vt 0.7939 0.0955 -0.2500
vt 0.2061 0.0955 -0.2500
vt 0.0245 0.6545 -0.2500
vt 0.5000 1.0000 -0.2500
vt 0.5000 1.0000 0.2500
vt 0.0245 0.6545 0.2500
vt 0.2061 0.0955 0.2500
vt 0.7939 0.0955 0.2500
vt 0.9755 0.6545 0.2500
vt 0.7500 0.0000 1.0000
vt 0.9500 0.0000 1.0000
vt 0.1500 0.0000 1.0000
vt 0.3500 0.0000 1.0000
vt 0.5500 0.0000 1.0000
vt 0.7500 0.3333 1.0000
vt 0.9500 0.3333 1.0000
vt 0.1500 0.3333 1.0000
vt 0.3500 0.3333 1.0000
vt 0.5500 0.3333 1.0000
vt 0.7500 0.6667 1.0000
vt 0.9500 0.6667 1.0000
vt 0.1500 0.6667 1.0000
vt 0.3500 0.6667 1.0000
vt 0.5500 0.6667 1.0000
vt 0.7500 1.0000 1.0000
vt 0.9500 1.0000 1.0000
vt 0.1500 1.0000 1.0000
vt 0.3500 1.0000 1.0000
vt 0.5500 1.0000 1.0000
vt 1.1500 0.0000 1.0000
vt 1.1500 0.3333 1.0000
vt 1.1500 0.6667 1.0000
vt 1.1500 1.0000 1.0000
vt 0.9755 0.6545 -0.2500
vt 0.7939 0.0955 -0.2500
vt 0.2061 0.0955 -0.2500
vt 0.0245 0.6545 -0.2500
vt 0.5000 1.0000 -0.2500
vt 0.5000 1.0000 0.2500
vt 0.0245 0.6545 0.2500
vt 0.2061 0.0955 0.2500
vt 0.7939 0.0955 0.2500
vt 0.9755 0.6545 0.2500
# 108 texture coords

g tree_trunk
s 8
f 1/1/1 2/2/2 7/7/3 6/6/4 
f 2/2/5 3/26/6 8/27/7 7/7/8 
f 3/3/9 4/4/10 9/9/11 8/8/12 
f 4/4/13 5/5/14 10/10/15 9/9/16 
f 5/5/17 1/1/18 6/6/19 10/10/20 
f 6/6/21 7/7/22 12/12/23 11/11/24 
f 7/7/25 8/27/26 13/28/27 12/12/28 
f 8/8/29 9/9/30 14/14/31 13/13/32 
f 9/9/33 10/10/34 15/15/35 14/14/36 
f 10/10/37 6/6/38 11/11/39 15/15/40 
f 11/11/41 12/12/42 17/17/43 16/16/44 
f 12/12/45 13/28/46 18/29/47 17/17/48 
f 13/13/49 14/14/50 19/19/51 18/18/52 
f 14/14/53 15/15/54 20/20/55 19/19/56 
f 15/15/57 11/11/58 16/16/59 20/20/60 
f 16/16/61 17/17/62 22/22/63 21/21/64 
f 17/17/65 18/29/66 23/30/67 22/22/68 
f 18/18/69 19/19/70 24/24/71 23/23/72 
f 19/19/73 20/20/74 25/25/75 24/24/76 
f 20/20/77 16/16/78 21/21/79 25/25/80 
s 1
f 3/33/81 2/34/82 1/35/83 5/31/84 4/32/85 
f 23/38/86 24/39/87 25/40/88 21/36/89 22/37/90 
s 8
f 26/41/91 27/42/92 32/47/93 31/46/94 
f 27/42/95 28/61/96 33/62/97 32/47/98 
f 28/43/99 29/44/100 34/49/101 33/48/102 
f 29/44/103 30/45/104 35/50/105 34/49/106 
f 30/45/107 26/41/108 31/46/109 35/50/110 
f 31/46/111 32/47/112 37/52/113 36/51/114 
f 32/47/115 33/62/116 38/63/117 37/52/118 
f 33/48/119 34/49/120 39/54/121 38/53/122 
f 34/49/123 35/50/124 40/55/125 39/54/126 
f 35/50/127 31/46/128 36/51/129 40/55/130 
f 36/51/131 37/52/132 42/57/133 41/56/134 
f 37/52/135 38/63/136 43/64/137 42/57/138 
f 38/53/139 39/54/140 44/59/141 43/58/142 
f 39/54/143 40/55/144 45/60/145 44/59/146 
f 40/55/147 36/51/148 41/56/149 45/60/150 
s 1
f 28/67/151 27/68/152 26/69/153 30/65/154 29/66/155 
f 43/72/156 44/73/157 45/74/158 41/70/159 42/71/160 
s 8
f 46/75/161 47/76/162 52/81/163 51/80/164 
f 47/76/165 48/95/166 53/96/167 52/81/168 
f 48/77/169 49/78/170 54/83/171 53/82/172 
f 49/78/173 50/79/174 55/84/175 54/83/176 
f 50/79/177 46/75/178 51/80/179 55/84/180 
f 51/80/181 52/81/182 57/86/183 56/85/184 
f 52/81/185 53/96/186 58/97/187 57/86/188 
f 53/82/189 54/83/190 59/88/191 58/87/192 
f 54/83/193 55/84/194 60/89/195 59/88/196 
f 55/84/197 51/80/198 56/85/199 60/89/200 
f 56/85/201 57/86/202 62/91/203 61/90/204 
f 57/86/205 58/97/206 63/98/207 62/91/208 
f 58/87/209 59/88/210 64/93/211 63/92/212 
f 59/88/213 60/89/214 65/94/215 64/93/216 
f 60/89/217 56/85/218 61/90/219 65/94/220 
s 1
f 48/101/221 47/102/222 46/103/223 50/99/224 49/100/225 
f 63/106/226 64/107/227 65/108/228 61/104/229 62/105/230 
# 56 polygons

